<svg width="24" height="24" viewBox="0 0 24 24" fill="none" xmlns="http://www.w3.org/2000/svg">
<path d="M0 10C0 4.47715 4.47715 0 10 0H14C19.5228 0 24 4.47715 24 10V14C24 19.5228 19.5228 24 14 24H10C4.47715 24 0 19.5228 0 14V10Z" fill="white"/>
<path d="M6 15.5003V18H8.49965L15.872 10.6277L13.3723 8.12804L6 15.5003ZM17.805 8.69463C18.065 8.43466 18.065 8.01472 17.805 7.75476L16.2452 6.19497C15.9853 5.93501 15.5653 5.93501 15.3054 6.19497L14.0855 7.4148L16.5852 9.91446L17.805 8.69463Z" fill="#332C28"/>
</svg>
