<svg width="50" height="50" viewBox="0 0 50 50" fill="none" xmlns="http://www.w3.org/2000/svg">
<path d="M10.4167 6.25C8.13945 6.25 6.25 8.13945 6.25 10.4167V39.5833C6.25 41.8605 8.13945 43.75 10.4167 43.75H39.5833C41.8605 43.75 43.75 41.8605 43.75 39.5833V10.4167C43.75 8.13945 41.8605 6.25 39.5833 6.25H10.4167ZM10.4167 10.4167H39.5833V39.5833H10.4167V10.4167ZM29.1667 14.5833V18.75H35.4167V14.5833H29.1667ZM17.5741 14.5874C16.6157 14.5478 15.7382 15.0232 15.1611 15.7878C13.1486 18.4461 16.959 21.5563 17.8548 22.3918C18.3902 22.8918 19.0561 23.4863 19.4499 23.8363C19.6478 24.0133 19.9396 24.0133 20.1375 23.8363C20.5334 23.4842 21.1931 22.8897 21.7285 22.3918C22.6243 21.5563 26.4347 18.4461 24.4222 15.7878C23.843 15.0232 22.9676 14.5478 22.0093 14.5874C20.5822 14.6457 19.7917 15.6698 19.7917 15.6698C19.7917 15.6698 19.0011 14.6457 17.5741 14.5874ZM25 22.9167V27.0833H35.4167V22.9167H25ZM14.5833 31.25V35.4167H35.4167V31.25H14.5833Z" fill="#98A8D3"/>
</svg>
