<svg width="40" height="40" viewBox="0 0 40 40" fill="none" xmlns="http://www.w3.org/2000/svg">
<path d="M0 10C0 4.47715 4.47715 0 10 0H30C35.5228 0 40 4.47715 40 10V30C40 35.5228 35.5228 40 30 40H10C4.47715 40 0 35.5228 0 30V10Z" fill="#FDB78F"/>
<path d="M20 9C17.3478 9 14.8043 10.033 12.9289 11.8718C11.0536 13.7105 10 16.2044 10 18.8048C9.99686 21.2135 10.8981 23.539 12.5318 25.3378C14.1655 27.1366 16.4174 28.2829 18.8579 28.558C18.5058 29.3013 18.0545 29.9955 17.5158 30.6222C17.3943 30.7572 17.3209 30.9273 17.3066 31.1069C17.2922 31.2864 17.3378 31.4656 17.4363 31.6176C17.5349 31.7695 17.6811 31.886 17.8531 31.9493C18.025 32.0127 18.2132 32.0196 18.3895 31.969C22.9369 30.6686 30 27.2834 30 18.8151C30.0014 17.5267 29.7438 16.2506 29.2418 15.0598C28.7399 13.8691 28.0035 12.787 27.0748 11.8754C26.1461 10.9639 25.0432 10.2407 23.8293 9.74733C22.6153 9.25395 21.3141 9 20 9Z" fill="#E87256"/>
</svg>
