<svg width="14" height="14" viewBox="0 0 14 14" fill="none" xmlns="http://www.w3.org/2000/svg">
<g clip-path="url(#clip0_0_1209)">
<path d="M7 0C5.61553 0 4.26215 0.410548 3.11101 1.17972C1.95987 1.94889 1.06265 3.04213 0.532839 4.32121C0.00302595 5.6003 -0.135588 7.00776 0.134509 8.36563C0.404605 9.7235 1.07128 10.9708 2.05025 11.9498C3.02922 12.9287 4.2765 13.5954 5.63437 13.8655C6.99224 14.1356 8.39971 13.997 9.67879 13.4672C10.9579 12.9373 12.0511 12.0401 12.8203 10.889C13.5895 9.73785 14 8.38447 14 7C14 5.14348 13.2625 3.363 11.9498 2.05025C10.637 0.737493 8.85652 0 7 0ZM10.83 7L9.69001 8.11L9.96001 9.67C9.99388 9.8666 9.9721 10.0687 9.89716 10.2536C9.82221 10.4385 9.69708 10.5988 9.53588 10.7163C9.37467 10.8338 9.18383 10.9039 8.98488 10.9187C8.78594 10.9335 8.58682 10.8924 8.41001 10.8L7 10.06L5.59 10.8C5.41319 10.8924 5.21407 10.9335 5.01512 10.9187C4.81618 10.9039 4.62533 10.8338 4.46413 10.7163C4.30293 10.5988 4.17779 10.4385 4.10285 10.2536C4.0279 10.0687 4.00613 9.8666 4.04 9.67L4.31 8.11L3.17 7C3.02564 6.86103 2.92321 6.68432 2.87436 6.48999C2.82551 6.29566 2.83221 6.09151 2.89369 5.9008C2.95518 5.71009 3.06898 5.54049 3.22214 5.41129C3.3753 5.28208 3.56165 5.19848 3.76 5.17L5.33 4.94L6.04 3.50999C6.12825 3.33069 6.26496 3.17971 6.43463 3.07411C6.6043 2.96852 6.80016 2.91255 7 2.91255C7.19985 2.91255 7.3957 2.96852 7.56537 3.07411C7.73504 3.17971 7.87175 3.33069 7.96001 3.50999L8.66001 4.94L10.24 5.17C10.4469 5.19211 10.6429 5.27408 10.8039 5.40587C10.965 5.53766 11.0841 5.71353 11.1467 5.91199C11.2093 6.11044 11.2127 6.32284 11.1565 6.52319C11.1002 6.72354 10.9868 6.90314 10.83 7.03999V7Z" fill="white"/>
</g>
<defs>
<clipPath id="clip0_0_1209">
<rect width="14" height="14" fill="white"/>
</clipPath>
</defs>
</svg>
