<svg width="270" height="246" viewBox="0 0 270 246" fill="none" xmlns="http://www.w3.org/2000/svg">
<path d="M120.417 36.25C118.139 36.25 116.25 38.1395 116.25 40.4167V69.5833C116.25 71.8605 118.139 73.75 120.417 73.75H149.583C151.861 73.75 153.75 71.8605 153.75 69.5833V40.4167C153.75 38.1395 151.861 36.25 149.583 36.25H120.417ZM120.417 40.4167H149.583V69.5833H120.417V40.4167ZM139.167 44.5833V48.75H145.417V44.5833H139.167ZM127.574 44.5874C126.616 44.5478 125.738 45.0232 125.161 45.7878C123.149 48.4461 126.959 51.5563 127.855 52.3918C128.39 52.8918 129.056 53.4863 129.45 53.8363C129.648 54.0133 129.94 54.0133 130.138 53.8363C130.533 53.4842 131.193 52.8897 131.729 52.3918C132.624 51.5563 136.435 48.4461 134.422 45.7878C133.843 45.0232 132.968 44.5478 132.009 44.5874C130.582 44.6457 129.792 45.6698 129.792 45.6698C129.792 45.6698 129.001 44.6457 127.574 44.5874ZM135 52.9167V57.0833H145.417V52.9167H135ZM124.583 61.25V65.4167H145.417V61.25H124.583Z" fill="#98A8D3"/>
<path d="M98.709 131.72H94.485V116.744H98.709V118.12H96.053V130.344H98.709V131.72ZM103.974 127.944C103.408 127.944 102.907 127.859 102.47 127.688C102.032 127.507 101.659 127.272 101.35 126.984C101.04 126.696 100.806 126.365 100.646 125.992C100.486 125.619 100.406 125.24 100.406 124.856V123.928C100.406 123.544 100.486 123.165 100.646 122.792C100.806 122.419 101.04 122.088 101.35 121.8C101.659 121.501 102.032 121.267 102.47 121.096C102.907 120.915 103.408 120.824 103.974 120.824C104.528 120.824 105.024 120.915 105.462 121.096C105.91 121.267 106.288 121.501 106.598 121.8C106.907 122.088 107.142 122.419 107.302 122.792C107.462 123.165 107.542 123.544 107.542 123.928V124.856C107.542 125.24 107.462 125.619 107.302 125.992C107.142 126.365 106.907 126.696 106.598 126.984C106.288 127.272 105.91 127.507 105.462 127.688C105.024 127.859 104.528 127.944 103.974 127.944ZM113.43 123.72H111.158V131.24H109.574V116.488H111.158V122.344H113.43V123.72ZM103.974 122.152C103.334 122.152 102.827 122.333 102.454 122.696C102.08 123.048 101.894 123.517 101.894 124.104V124.68C101.894 125.267 102.08 125.736 102.454 126.088C102.827 126.44 103.334 126.616 103.974 126.616C104.614 126.616 105.12 126.44 105.494 126.088C105.867 125.736 106.054 125.267 106.054 124.68V124.104C106.054 123.517 105.867 123.048 105.494 122.696C105.12 122.333 104.614 122.152 103.974 122.152ZM103.19 118.664V116.584H104.774V118.664H108.198V120.008H99.6698V118.664H103.19ZM115.822 123.976V119.944H123.918V118.568H115.758V117.24H125.486V121.272H117.39V122.648H125.838V123.976H115.822ZM119.886 131.24V126.664H113.918V125.32H127.454V126.664H121.486V131.24H119.886ZM135.799 124.472H129.143V117.384H135.799V124.472ZM138.999 127.016V123.224H136.663V121.864H138.999V120.056H136.663V118.696H138.999V116.488H140.551V127.016H138.999ZM132.919 129.704H140.855V131.08H131.335V126.184H132.919V129.704ZM130.695 123.128H134.247V118.728H130.695V123.128ZM154.191 125.496V131.224H145.199V125.496H154.191ZM151.439 123.384C150.874 123.459 150.346 123.517 149.855 123.56C149.365 123.603 148.821 123.64 148.223 123.672C147.626 123.693 146.933 123.709 146.143 123.72C145.354 123.731 144.383 123.736 143.231 123.736V117.352H150.063V118.712H144.783V122.376C145.605 122.376 146.298 122.371 146.863 122.36C147.439 122.349 147.962 122.333 148.431 122.312C148.901 122.291 149.354 122.264 149.791 122.232C150.229 122.189 150.725 122.136 151.279 122.072L151.439 123.384ZM146.767 129.88H152.623V126.84H146.767V129.88ZM156.287 121.176H154.191V124.776H152.623V116.488H154.191V119.8H156.287V121.176ZM156.984 130.344H159.64V118.12H156.984V116.744H161.208V131.72H156.984V130.344Z" fill="#98A8D3"/>
<path d="M176.313 124.248V125.224H162.873V124.248H176.313ZM165.993 130.008H174.633V131H164.857V126.696H165.993V130.008ZM169.593 122.904C168.942 122.904 168.334 122.84 167.769 122.712C167.214 122.584 166.729 122.403 166.312 122.168C165.907 121.933 165.587 121.651 165.353 121.32C165.118 120.979 165.001 120.605 165.001 120.2V119.592C165.001 119.187 165.118 118.819 165.353 118.488C165.587 118.147 165.907 117.859 166.312 117.624C166.729 117.389 167.214 117.208 167.769 117.08C168.334 116.952 168.942 116.888 169.593 116.888C170.243 116.888 170.846 116.952 171.401 117.08C171.966 117.208 172.451 117.389 172.857 117.624C173.273 117.859 173.598 118.147 173.833 118.488C174.067 118.819 174.185 119.187 174.185 119.592V120.2C174.185 120.605 174.067 120.979 173.833 121.32C173.598 121.651 173.273 121.933 172.857 122.168C172.451 122.403 171.966 122.584 171.401 122.712C170.846 122.84 170.243 122.904 169.593 122.904ZM169.593 117.848C169.123 117.848 168.675 117.896 168.249 117.992C167.833 118.077 167.465 118.2 167.145 118.36C166.825 118.52 166.569 118.712 166.377 118.936C166.185 119.16 166.089 119.405 166.089 119.672V120.12C166.089 120.387 166.185 120.632 166.377 120.856C166.569 121.08 166.825 121.272 167.145 121.432C167.465 121.592 167.833 121.72 168.249 121.816C168.675 121.901 169.123 121.944 169.593 121.944C170.062 121.944 170.505 121.901 170.921 121.816C171.347 121.72 171.721 121.592 172.041 121.432C172.361 121.272 172.617 121.08 172.809 120.856C173.001 120.632 173.097 120.387 173.097 120.12V119.672C173.097 119.405 173.001 119.16 172.809 118.936C172.617 118.712 172.361 118.52 172.041 118.36C171.721 118.2 171.347 118.077 170.921 117.992C170.505 117.896 170.062 117.848 169.593 117.848ZM67.9465 154.64C68.5438 154.64 69.1092 154.699 69.6425 154.816C70.1865 154.933 70.6612 155.109 71.0665 155.344C71.4718 155.568 71.7918 155.845 72.0265 156.176C72.2612 156.507 72.3785 156.88 72.3785 157.296V157.904C72.3785 158.32 72.2612 158.693 72.0265 159.024C71.7918 159.355 71.4718 159.632 71.0665 159.856C70.6612 160.091 70.1865 160.267 69.6425 160.384C69.1092 160.501 68.5438 160.56 67.9465 160.56C67.3492 160.56 66.7785 160.501 66.2345 160.384C65.7012 160.267 65.2318 160.091 64.8265 159.856C64.4212 159.632 64.1012 159.355 63.8665 159.024C63.6318 158.693 63.5145 158.32 63.5145 157.904V157.296C63.5145 156.869 63.6318 156.491 63.8665 156.16C64.1012 155.829 64.4212 155.552 64.8265 155.328C65.2318 155.104 65.7012 154.933 66.2345 154.816C66.7785 154.699 67.3492 154.64 67.9465 154.64ZM69.3225 153.168C67.9785 153.307 66.5545 153.387 65.0505 153.408C63.5465 153.429 62.0318 153.44 60.5065 153.44V152.48H62.0585V147.44H60.6025V146.48H68.5865V147.44H66.9705V152.4C67.3545 152.379 67.7332 152.357 68.1065 152.336C68.4798 152.304 68.8532 152.267 69.2265 152.224L69.3225 153.168ZM67.9465 159.6C68.3732 159.6 68.7838 159.563 69.1785 159.488C69.5838 159.413 69.9412 159.301 70.2505 159.152C70.5705 159.003 70.8212 158.816 71.0025 158.592C71.1945 158.379 71.2905 158.128 71.2905 157.84V157.36C71.2905 157.072 71.1945 156.821 71.0025 156.608C70.8212 156.384 70.5705 156.197 70.2505 156.048C69.9412 155.899 69.5838 155.787 69.1785 155.712C68.7838 155.637 68.3732 155.6 67.9465 155.6C67.5198 155.6 67.1038 155.637 66.6985 155.712C66.3038 155.787 65.9465 155.899 65.6265 156.048C65.3172 156.197 65.0665 156.384 64.8745 156.608C64.6932 156.821 64.6025 157.072 64.6025 157.36V157.84C64.6025 158.128 64.6932 158.379 64.8745 158.592C65.0665 158.816 65.3172 159.003 65.6265 159.152C65.9465 159.301 66.3038 159.413 66.6985 159.488C67.1038 159.563 67.5198 159.6 67.9465 159.6ZM71.1945 148.048V145.552H72.2985V154.304H71.1945V151.296H68.6505V150.336H71.1945V149.008H68.6505V148.048H71.1945ZM63.1465 152.48C64.0852 152.48 64.9972 152.464 65.8825 152.432V147.44H63.1465V152.48ZM77.651 154.656H86.595V160.144H77.651V154.656ZM86.595 153.792H85.475V149.952H82.035V152.848H75.379V146.208H76.467V148.608H80.947V146.208H82.035V148.96H85.475V145.552H86.595V153.792ZM78.739 159.136H85.507V155.664H78.739V159.136ZM76.467 151.872H80.947V149.584H76.467V151.872ZM96.4755 152.224C96.4755 152.555 96.3955 152.875 96.2355 153.184C96.0862 153.493 95.8675 153.771 95.5795 154.016C95.2915 154.251 94.9395 154.443 94.5235 154.592C94.1075 154.731 93.6382 154.8 93.1155 154.8C92.5928 154.8 92.1235 154.731 91.7075 154.592C91.2915 154.443 90.9395 154.251 90.6515 154.016C90.3635 153.771 90.1395 153.493 89.9795 153.184C89.8302 152.875 89.7555 152.555 89.7555 152.224V151.616C89.7555 151.285 89.8302 150.965 89.9795 150.656C90.1395 150.347 90.3635 150.075 90.6515 149.84C90.9395 149.595 91.2915 149.403 91.7075 149.264C92.1235 149.115 92.5928 149.04 93.1155 149.04C93.6382 149.04 94.1075 149.115 94.5235 149.264C94.9395 149.403 95.2915 149.595 95.5795 149.84C95.8675 150.075 96.0862 150.347 96.2355 150.656C96.3955 150.965 96.4755 151.285 96.4755 151.616V152.224ZM93.1155 153.84C93.4675 153.84 93.7822 153.792 94.0595 153.696C94.3475 153.589 94.5875 153.456 94.7795 153.296C94.9822 153.136 95.1368 152.96 95.2435 152.768C95.3502 152.565 95.4035 152.368 95.4035 152.176V151.664C95.4035 151.472 95.3502 151.28 95.2435 151.088C95.1368 150.885 94.9822 150.704 94.7795 150.544C94.5875 150.384 94.3475 150.256 94.0595 150.16C93.7822 150.053 93.4675 150 93.1155 150C92.7635 150 92.4435 150.053 92.1555 150.16C91.8782 150.256 91.6382 150.384 91.4355 150.544C91.2435 150.704 91.0942 150.885 90.9875 151.088C90.8808 151.28 90.8275 151.472 90.8275 151.664V152.176C90.8275 152.368 90.8808 152.565 90.9875 152.768C91.0942 152.96 91.2435 153.136 91.4355 153.296C91.6382 153.456 91.8782 153.589 92.1555 153.696C92.4435 153.792 92.7635 153.84 93.1155 153.84ZM100.252 150.016H102.492V151.008H100.252V156.192H99.1315V145.552H100.252V150.016ZM92.6675 159.008H100.7V160H91.5315V155.952H92.6675V159.008ZM93.6755 147.28H97.3395V148.256H88.9235V147.28H92.5555V145.408H93.6755V147.28ZM118.89 153.616V157.392H111.05V159.264H119.274V160.224H109.946V156.448H117.786V154.592H109.866V153.616H118.89ZM118.89 152.752H117.77V145.552H118.89V152.752ZM111.066 152.384C110.543 152.384 110.063 152.304 109.626 152.144C109.189 151.984 108.81 151.771 108.49 151.504C108.181 151.237 107.935 150.928 107.754 150.576C107.583 150.224 107.498 149.856 107.498 149.472V148.768C107.498 148.384 107.583 148.016 107.754 147.664C107.935 147.312 108.181 147.003 108.49 146.736C108.81 146.469 109.189 146.256 109.626 146.096C110.063 145.936 110.543 145.856 111.066 145.856C111.589 145.856 112.069 145.936 112.506 146.096C112.943 146.256 113.317 146.469 113.626 146.736C113.946 147.003 114.191 147.312 114.362 147.664C114.543 148.016 114.634 148.384 114.634 148.768V149.472C114.634 149.856 114.543 150.224 114.362 150.576C114.191 150.928 113.946 151.237 113.626 151.504C113.317 151.771 112.943 151.984 112.506 152.144C112.069 152.304 111.589 152.384 111.066 152.384ZM111.066 146.864C110.703 146.864 110.367 146.917 110.058 147.024C109.759 147.131 109.498 147.275 109.274 147.456C109.061 147.637 108.89 147.851 108.762 148.096C108.645 148.341 108.586 148.597 108.586 148.864V149.376C108.586 149.653 108.645 149.915 108.762 150.16C108.89 150.395 109.061 150.603 109.274 150.784C109.498 150.965 109.759 151.109 110.058 151.216C110.367 151.323 110.703 151.376 111.066 151.376C111.429 151.376 111.759 151.323 112.058 151.216C112.367 151.109 112.629 150.965 112.842 150.784C113.066 150.603 113.237 150.395 113.354 150.16C113.482 149.915 113.546 149.653 113.546 149.376V148.864C113.546 148.597 113.482 148.341 113.354 148.096C113.237 147.851 113.066 147.637 112.842 147.456C112.629 147.275 112.367 147.131 112.058 147.024C111.759 146.917 111.429 146.864 111.066 146.864ZM128.275 154.48C128.872 154.48 129.432 154.544 129.955 154.672C130.488 154.8 130.952 154.981 131.347 155.216C131.741 155.451 132.051 155.739 132.275 156.08C132.509 156.421 132.627 156.8 132.627 157.216V157.824C132.627 158.24 132.509 158.619 132.275 158.96C132.051 159.301 131.741 159.589 131.347 159.824C130.952 160.059 130.488 160.24 129.955 160.368C129.432 160.496 128.872 160.56 128.275 160.56C127.677 160.56 127.112 160.496 126.579 160.368C126.056 160.24 125.597 160.059 125.203 159.824C124.808 159.589 124.493 159.301 124.259 158.96C124.035 158.619 123.923 158.24 123.923 157.824V157.216C123.923 156.789 124.035 156.405 124.259 156.064C124.493 155.723 124.808 155.435 125.203 155.2C125.597 154.965 126.056 154.789 126.579 154.672C127.112 154.544 127.677 154.48 128.275 154.48ZM128.275 159.6C128.701 159.6 129.112 159.557 129.507 159.472C129.901 159.387 130.248 159.264 130.547 159.104C130.845 158.955 131.085 158.768 131.267 158.544C131.448 158.32 131.539 158.064 131.539 157.776V157.264C131.539 156.976 131.448 156.72 131.267 156.496C131.085 156.272 130.845 156.085 130.547 155.936C130.248 155.776 129.901 155.653 129.507 155.568C129.112 155.483 128.701 155.44 128.275 155.44C127.848 155.44 127.437 155.483 127.043 155.568C126.648 155.653 126.301 155.776 126.003 155.936C125.704 156.085 125.464 156.272 125.283 156.496C125.101 156.72 125.011 156.976 125.011 157.264V157.776C125.011 158.064 125.101 158.32 125.283 158.544C125.464 158.768 125.704 158.955 126.003 159.104C126.301 159.264 126.648 159.387 127.043 159.472C127.437 159.557 127.848 159.6 128.275 159.6ZM125.363 150.368C125.341 150.507 125.213 150.699 124.979 150.944C124.755 151.179 124.467 151.467 124.115 151.808C123.837 152.075 123.48 152.395 123.043 152.768C122.616 153.131 122.179 153.488 121.731 153.84L121.027 153.024C121.464 152.704 121.912 152.352 122.371 151.968C122.84 151.573 123.256 151.195 123.619 150.832C123.875 150.576 124.072 150.352 124.211 150.16C124.36 149.968 124.472 149.781 124.547 149.6C124.632 149.408 124.685 149.205 124.707 148.992C124.728 148.768 124.739 148.507 124.739 148.208V146.208H125.891V148.176C125.891 148.475 125.901 148.731 125.923 148.944C125.944 149.147 125.992 149.339 126.067 149.52C126.152 149.701 126.269 149.888 126.419 150.08C126.579 150.261 126.792 150.469 127.059 150.704C127.453 151.045 127.853 151.381 128.259 151.712C128.664 152.032 129.043 152.32 129.395 152.576L128.723 153.36C128.296 153.04 127.907 152.741 127.555 152.464C127.213 152.176 126.904 151.915 126.627 151.68C125.869 151.04 125.453 150.603 125.379 150.368H125.363ZM132.547 149.248H134.787V150.24H132.547V154.16H131.427V145.552H132.547V149.248ZM148.875 152.096V153.056H135.435V152.096H148.875ZM146.731 148.592C146.731 148.965 146.614 149.301 146.379 149.6C146.144 149.899 145.819 150.155 145.403 150.368C144.998 150.571 144.512 150.731 143.947 150.848C143.392 150.955 142.795 151.008 142.155 151.008C141.515 151.008 140.912 150.955 140.347 150.848C139.792 150.731 139.307 150.571 138.891 150.368C138.486 150.155 138.166 149.899 137.931 149.6C137.696 149.301 137.579 148.965 137.579 148.592V148.112C137.579 147.728 137.696 147.387 137.931 147.088C138.166 146.789 138.486 146.539 138.891 146.336C139.307 146.123 139.792 145.963 140.347 145.856C140.912 145.749 141.515 145.696 142.155 145.696C142.795 145.696 143.392 145.755 143.947 145.872C144.512 145.979 144.998 146.139 145.403 146.352C145.819 146.555 146.144 146.805 146.379 147.104C146.614 147.403 146.731 147.739 146.731 148.112V148.592ZM138.683 148.544C138.683 148.757 138.774 148.96 138.955 149.152C139.136 149.333 139.382 149.493 139.691 149.632C140.011 149.771 140.379 149.877 140.795 149.952C141.222 150.027 141.675 150.064 142.155 150.064C142.635 150.064 143.083 150.027 143.499 149.952C143.926 149.877 144.294 149.771 144.603 149.632C144.923 149.493 145.174 149.333 145.355 149.152C145.536 148.96 145.627 148.757 145.627 148.544V148.16C145.627 147.947 145.536 147.749 145.355 147.568C145.174 147.376 144.923 147.216 144.603 147.088C144.294 146.949 143.926 146.843 143.499 146.768C143.083 146.683 142.635 146.64 142.155 146.64C141.675 146.64 141.222 146.683 140.795 146.768C140.379 146.843 140.011 146.949 139.691 147.088C139.382 147.216 139.136 147.376 138.955 147.568C138.774 147.749 138.683 147.947 138.683 148.16V148.544ZM146.875 154.336V157.744H138.555V159.296H147.307V160.24H137.451V156.816H145.771V155.28H137.371V154.336H146.875ZM165.53 160.176H164.394V145.552H165.53V160.176ZM154.25 155.936C155.476 155.232 156.452 154.629 157.178 154.128C157.903 153.616 158.452 153.141 158.826 152.704C159.199 152.256 159.439 151.808 159.546 151.36C159.663 150.912 159.722 150.389 159.722 149.792V147.952H154.41V146.928H160.826V149.808C160.826 150.299 160.799 150.741 160.746 151.136C160.692 151.531 160.586 151.904 160.426 152.256C160.276 152.608 160.063 152.949 159.786 153.28C159.508 153.611 159.146 153.957 158.698 154.32C158.26 154.683 157.722 155.072 157.082 155.488C156.452 155.893 155.706 156.347 154.842 156.848L154.25 155.936ZM169.778 146.064H179.17V149.472H170.898V151.008H179.49V151.952H175.09V153.472H181.25V154.432H167.81V153.472H173.97V151.952H169.826V148.544H178.098V147.008H169.778V146.064ZM169.522 155.872H179.314V160.304H178.194V156.848H169.522V155.872ZM186.443 156.816C185.888 156.816 185.397 156.731 184.971 156.56C184.544 156.379 184.181 156.149 183.883 155.872C183.595 155.584 183.371 155.259 183.211 154.896C183.061 154.533 182.987 154.165 182.987 153.792V152.928C182.987 152.555 183.061 152.187 183.211 151.824C183.371 151.461 183.595 151.136 183.883 150.848C184.181 150.56 184.544 150.331 184.971 150.16C185.397 149.979 185.888 149.888 186.443 149.888C186.997 149.888 187.488 149.979 187.915 150.16C188.341 150.331 188.699 150.56 188.987 150.848C189.285 151.136 189.509 151.461 189.659 151.824C189.819 152.187 189.899 152.555 189.899 152.928V153.792C189.899 154.165 189.819 154.533 189.659 154.896C189.509 155.259 189.285 155.584 188.987 155.872C188.699 156.149 188.341 156.379 187.915 156.56C187.488 156.731 186.997 156.816 186.443 156.816ZM186.443 150.896C186.08 150.896 185.749 150.949 185.451 151.056C185.163 151.163 184.912 151.312 184.699 151.504C184.496 151.696 184.336 151.925 184.219 152.192C184.112 152.448 184.059 152.725 184.059 153.024V153.696C184.059 153.995 184.112 154.277 184.219 154.544C184.336 154.8 184.496 155.024 184.699 155.216C184.912 155.408 185.163 155.557 185.451 155.664C185.749 155.771 186.08 155.824 186.443 155.824C186.805 155.824 187.131 155.771 187.419 155.664C187.717 155.557 187.968 155.408 188.171 155.216C188.384 155.024 188.544 154.8 188.651 154.544C188.768 154.277 188.827 153.995 188.827 153.696V153.024C188.827 152.725 188.768 152.448 188.651 152.192C188.544 151.925 188.384 151.696 188.171 151.504C187.968 151.312 187.717 151.163 187.419 151.056C187.131 150.949 186.805 150.896 186.443 150.896ZM193.515 151.536H195.947V152.544H193.515V160.176H192.379V145.552H193.515V151.536ZM185.883 147.856V145.632H187.019V147.856H190.667V148.848H182.187V147.856H185.883ZM201.539 157.136V151.52H202.691V157.136H209.875V158.112H196.435V157.136H201.539ZM206.115 155.12C206.211 154.629 206.291 154.149 206.355 153.68C206.43 153.2 206.488 152.725 206.531 152.256C206.584 151.776 206.622 151.291 206.643 150.8C206.675 150.299 206.691 149.781 206.691 149.248V147.92H198.131V146.928H207.859V148.656C207.859 149.328 207.848 149.957 207.827 150.544C207.806 151.12 207.768 151.675 207.715 152.208C207.672 152.731 207.614 153.243 207.539 153.744C207.475 154.245 207.395 154.752 207.299 155.264L206.115 155.12ZM43.4988 179.544C43.4348 179.704 43.2481 179.923 42.9388 180.2C42.6401 180.467 42.2028 180.792 41.6268 181.176C41.1468 181.496 40.5974 181.843 39.9788 182.216C39.3708 182.579 38.7788 182.915 38.2028 183.224L37.5948 182.328C38.2988 181.965 38.9441 181.613 39.5308 181.272C40.1174 180.92 40.5974 180.616 40.9708 180.36C41.3654 180.093 41.6908 179.853 41.9468 179.64C42.2028 179.427 42.4001 179.203 42.5388 178.968C42.6881 178.723 42.7894 178.456 42.8428 178.168C42.8961 177.869 42.9228 177.501 42.9228 177.064V175.512H44.0908V177.064C44.0908 177.501 44.1174 177.869 44.1708 178.168C44.2241 178.456 44.3201 178.723 44.4588 178.968C44.6081 179.203 44.8054 179.427 45.0508 179.64C45.3068 179.853 45.6321 180.093 46.0268 180.36C46.4001 180.616 46.8748 180.915 47.4508 181.256C48.0374 181.597 48.6774 181.949 49.3708 182.312L48.7788 183.192C48.2028 182.883 47.6108 182.547 47.0028 182.184C46.4054 181.821 45.8668 181.48 45.3868 181.16C44.8108 180.776 44.3734 180.451 44.0748 180.184C43.7761 179.917 43.5894 179.704 43.5148 179.544H43.4988ZM42.9068 186.136V182.76H44.0748V186.136H50.2188V187.112H36.7788V186.136H42.9068ZM64.5313 181.4V182.36H58.3713V183.992C58.9153 184.024 59.4273 184.104 59.9073 184.232C60.3873 184.349 60.8086 184.515 61.1713 184.728C61.5339 184.941 61.8219 185.203 62.0353 185.512C62.2486 185.811 62.3553 186.152 62.3553 186.536V186.984C62.3553 187.4 62.2273 187.768 61.9713 188.088C61.7259 188.408 61.3953 188.675 60.9793 188.888C60.5633 189.112 60.0779 189.277 59.5233 189.384C58.9793 189.501 58.4086 189.56 57.8113 189.56C57.2139 189.56 56.6379 189.501 56.0833 189.384C55.5393 189.277 55.0593 189.112 54.6432 188.888C54.2273 188.675 53.8913 188.408 53.6353 188.088C53.3899 187.768 53.2673 187.4 53.2673 186.984V186.52C53.2673 186.136 53.3739 185.795 53.5873 185.496C53.8006 185.187 54.0833 184.931 54.4353 184.728C54.7979 184.515 55.2193 184.349 55.6993 184.232C56.1899 184.104 56.7073 184.024 57.2513 183.992V182.36H51.0913V181.4H64.5313ZM57.7953 178.104C57.7099 178.285 57.4966 178.472 57.1553 178.664C56.8139 178.856 56.3926 179.059 55.8913 179.272C55.4326 179.464 54.9579 179.651 54.4673 179.832C53.9766 180.013 53.3739 180.227 52.6593 180.472L52.2113 179.592C53.6619 179.112 54.7766 178.701 55.5553 178.36C55.8859 178.221 56.1579 178.088 56.3713 177.96C56.5846 177.821 56.7553 177.683 56.8833 177.544C57.0113 177.395 57.1019 177.24 57.1553 177.08C57.2086 176.909 57.2353 176.717 57.2353 176.504V176.104H52.8513V175.144H62.7713V176.104H58.3713V176.504C58.3713 176.717 58.3926 176.909 58.4353 177.08C58.4886 177.24 58.5793 177.395 58.7073 177.544C58.8353 177.683 59.0059 177.821 59.2193 177.96C59.4326 178.088 59.7046 178.221 60.0353 178.36C60.4299 178.531 60.9153 178.723 61.4913 178.936C62.0779 179.149 62.7073 179.363 63.3793 179.576L62.9633 180.456C62.3019 180.243 61.6993 180.035 61.1553 179.832C60.6113 179.629 60.1313 179.437 59.7153 179.256C59.2139 179.053 58.7926 178.856 58.4513 178.664C58.1099 178.461 57.8966 178.275 57.8113 178.104H57.7953ZM57.8113 188.6C58.2379 188.6 58.6593 188.563 59.0753 188.488C59.4913 188.424 59.8593 188.323 60.1793 188.184C60.5099 188.045 60.7713 187.869 60.9633 187.656C61.1659 187.453 61.2673 187.208 61.2673 186.92V186.6C61.2673 186.312 61.1659 186.067 60.9633 185.864C60.7713 185.651 60.5099 185.475 60.1793 185.336C59.8593 185.197 59.4913 185.096 59.0753 185.032C58.6593 184.957 58.2379 184.92 57.8113 184.92C57.3846 184.92 56.9633 184.957 56.5473 185.032C56.1313 185.096 55.7579 185.197 55.4273 185.336C55.1073 185.475 54.8459 185.651 54.6432 185.864C54.4513 186.067 54.3553 186.307 54.3553 186.584V186.92C54.3553 187.208 54.4513 187.453 54.6432 187.656C54.8459 187.869 55.1073 188.045 55.4273 188.184C55.7579 188.323 56.1313 188.424 56.5473 188.488C56.9633 188.563 57.3846 188.6 57.8113 188.6ZM73.1318 181.224C73.1318 181.555 73.0518 181.875 72.8918 182.184C72.7424 182.493 72.5238 182.771 72.2358 183.016C71.9478 183.251 71.5958 183.443 71.1798 183.592C70.7638 183.731 70.2944 183.8 69.7718 183.8C69.2491 183.8 68.7798 183.731 68.3638 183.592C67.9478 183.443 67.5958 183.251 67.3078 183.016C67.0198 182.771 66.7958 182.493 66.6358 182.184C66.4864 181.875 66.4118 181.555 66.4118 181.224V180.616C66.4118 180.285 66.4864 179.965 66.6358 179.656C66.7958 179.347 67.0198 179.075 67.3078 178.84C67.5958 178.595 67.9478 178.403 68.3638 178.264C68.7798 178.115 69.2491 178.04 69.7718 178.04C70.2944 178.04 70.7638 178.115 71.1798 178.264C71.5958 178.403 71.9478 178.595 72.2358 178.84C72.5238 179.075 72.7424 179.347 72.8918 179.656C73.0518 179.965 73.1318 180.285 73.1318 180.616V181.224ZM69.7718 182.84C70.1238 182.84 70.4384 182.792 70.7158 182.696C71.0038 182.589 71.2438 182.456 71.4358 182.296C71.6384 182.136 71.7931 181.96 71.8998 181.768C72.0064 181.565 72.0598 181.368 72.0598 181.176V180.664C72.0598 180.472 72.0064 180.28 71.8998 180.088C71.7931 179.885 71.6384 179.704 71.4358 179.544C71.2438 179.384 71.0038 179.256 70.7158 179.16C70.4384 179.053 70.1238 179 69.7718 179C69.4198 179 69.0998 179.053 68.8118 179.16C68.5344 179.256 68.2944 179.384 68.0918 179.544C67.8998 179.704 67.7504 179.885 67.6438 180.088C67.5371 180.28 67.4838 180.472 67.4838 180.664V181.176C67.4838 181.368 67.5371 181.565 67.6438 181.768C67.7504 181.96 67.8998 182.136 68.0918 182.296C68.2944 182.456 68.5344 182.589 68.8118 182.696C69.0998 182.792 69.4198 182.84 69.7718 182.84ZM76.9078 179.016H79.1478V180.008H76.9078V185.192H75.7878V174.552H76.9078V179.016ZM69.3238 188.008H77.3558V189H68.1878V184.952H69.3238V188.008ZM70.3318 176.28H73.9958V177.256H65.5798V176.28H69.2118V174.408H70.3318V176.28ZM94.7943 180.008H97.2423V181.016H94.7943V189.176H93.6583V174.552H94.7943V180.008ZM86.0263 182.104C86.2823 181.816 86.4849 181.555 86.6343 181.32C86.7836 181.085 86.9009 180.856 86.9863 180.632C87.0716 180.397 87.1249 180.157 87.1463 179.912C87.1783 179.667 87.1943 179.384 87.1943 179.064V175.624H88.3623V178.984C88.3623 179.293 88.3729 179.565 88.3943 179.8C88.4156 180.024 88.4583 180.243 88.5223 180.456C88.5863 180.659 88.6823 180.861 88.8103 181.064C88.9383 181.267 89.1089 181.491 89.3223 181.736C89.6423 182.109 90.0316 182.531 90.4903 183C90.9596 183.469 91.4983 183.976 92.1063 184.52L91.3703 185.288C90.8583 184.808 90.3836 184.355 89.9463 183.928C89.5196 183.491 89.1463 183.101 88.8263 182.76C88.5809 182.504 88.3569 182.259 88.1543 182.024C87.9623 181.789 87.8449 181.619 87.8023 181.512H87.7863C87.7756 181.565 87.7329 181.651 87.6583 181.768C87.5836 181.875 87.4876 181.997 87.3703 182.136C87.2636 182.275 87.1463 182.424 87.0182 182.584C86.8903 182.733 86.7676 182.872 86.6503 183C86.5116 183.149 86.3409 183.325 86.1383 183.528C85.9463 183.731 85.7383 183.944 85.5143 184.168C85.2903 184.392 85.0556 184.621 84.8103 184.856C84.5649 185.091 84.3249 185.309 84.0903 185.512L83.3383 184.728C83.8716 184.259 84.3569 183.811 84.7943 183.384C85.2423 182.957 85.6529 182.531 86.0263 182.104ZM100.499 184.04H109.283V189.16H100.499V184.04ZM99.6508 181.352C100.568 181.352 101.352 181.352 102.003 181.352C102.653 181.341 103.24 181.325 103.763 181.304C104.285 181.283 104.771 181.256 105.219 181.224C105.667 181.192 106.141 181.144 106.643 181.08L106.739 182.04C106.269 182.104 105.784 182.157 105.283 182.2C104.792 182.232 104.227 182.259 103.587 182.28C102.957 182.301 102.232 182.317 101.411 182.328C100.6 182.339 99.6454 182.344 98.5468 182.344V178.312H103.763V176.248H98.5468V175.256H104.867V179.272H99.6508V181.352ZM101.587 188.152H108.195V185.048H101.587V188.152ZM109.283 178.28H111.523V179.272H109.283V183.176H108.163V174.552H109.283V178.28ZM123.755 180.12H126.075V181.128H123.755V189.176H122.619V174.552H123.755V180.12ZM121.595 185.416C120.934 185.48 120.299 185.539 119.691 185.592C119.083 185.635 118.422 185.672 117.707 185.704C117.003 185.736 116.203 185.757 115.307 185.768C114.422 185.779 113.366 185.784 112.139 185.784V184.792C112.726 184.792 113.27 184.792 113.771 184.792C114.283 184.792 114.769 184.787 115.227 184.776V180.12H116.363V184.76C116.875 184.749 117.355 184.733 117.803 184.712C118.262 184.691 118.699 184.669 119.115 184.648C119.531 184.627 119.931 184.6 120.315 184.568C120.71 184.525 121.105 184.483 121.499 184.44L121.595 185.416ZM120.171 175.96V177.736C120.171 178.12 120.161 178.536 120.139 178.984C120.129 179.432 120.107 179.88 120.075 180.328C120.043 180.765 120.001 181.181 119.947 181.576C119.905 181.96 119.851 182.28 119.787 182.536L118.651 182.392C118.726 182.072 118.785 181.725 118.827 181.352C118.881 180.968 118.923 180.584 118.955 180.2C118.987 179.816 119.009 179.432 119.019 179.048C119.03 178.664 119.035 178.301 119.035 177.96V176.968H112.875V175.96H120.171ZM141.482 179.912H143.914V180.92H141.482V189.176H140.346V174.552H141.482V179.912ZM132.298 184.136H134.106C134.874 184.136 135.658 184.109 136.458 184.056C137.268 183.992 138.111 183.885 138.986 183.736L139.13 184.744C138.266 184.893 137.386 185 136.49 185.064C135.594 185.128 134.762 185.16 133.994 185.16H131.162V175.752H132.298V184.136ZM157.906 181.848V182.808H151.906V185.992H150.786V182.808H144.466V181.848H157.906ZM147.65 178.984H156.002V179.96H146.514V175.08H147.65V178.984ZM147.586 188.008H156.21V189H146.45V184.552H147.586V188.008ZM159.595 175.88H166.251V176.904H160.731V184.248H162.619C163.44 184.248 164.245 184.221 165.035 184.168C165.835 184.104 166.688 183.997 167.595 183.848L167.739 184.856C166.885 185.005 165.995 185.112 165.067 185.176C164.149 185.24 163.237 185.272 162.331 185.272H159.595V175.88ZM170.123 179.976H172.555V180.984H170.123V189.176H168.987V174.552H170.123V179.976ZM186.531 182.12V183.096H173.091V182.12H186.531ZM176.211 188.008H184.835V189H175.075V184.632H176.211V188.008ZM176.275 179.096H184.627V180.088H175.139V175.112H176.275V179.096ZM203.474 189.176H202.338V174.552H203.474V189.176ZM201.314 185.592C200.652 185.656 199.996 185.715 199.346 185.768C198.706 185.811 198.007 185.848 197.25 185.88C196.503 185.912 195.666 185.933 194.738 185.944C193.82 185.955 192.748 185.96 191.522 185.96V184.968C192.684 184.968 193.724 184.963 194.642 184.952C195.57 184.941 196.418 184.925 197.186 184.904C197.954 184.872 198.663 184.835 199.314 184.792C199.964 184.739 200.599 184.68 201.218 184.616L201.314 185.592ZM196.098 182.472C195.575 182.472 195.084 182.392 194.626 182.232C194.167 182.072 193.762 181.853 193.41 181.576C193.068 181.299 192.796 180.973 192.594 180.6C192.391 180.227 192.29 179.821 192.29 179.384V178.616C192.29 178.179 192.391 177.773 192.594 177.4C192.796 177.027 193.068 176.701 193.41 176.424C193.762 176.147 194.167 175.928 194.626 175.768C195.084 175.608 195.575 175.528 196.098 175.528C196.62 175.528 197.111 175.608 197.57 175.768C198.028 175.928 198.428 176.147 198.77 176.424C199.122 176.701 199.399 177.032 199.602 177.416C199.804 177.789 199.906 178.189 199.906 178.616V179.384C199.906 179.821 199.804 180.227 199.602 180.6C199.399 180.973 199.122 181.299 198.77 181.576C198.428 181.853 198.028 182.072 197.57 182.232C197.111 182.392 196.62 182.472 196.098 182.472ZM196.098 176.52C195.746 176.52 195.404 176.579 195.074 176.696C194.754 176.803 194.466 176.957 194.21 177.16C193.954 177.352 193.751 177.581 193.602 177.848C193.452 178.104 193.378 178.381 193.378 178.68V179.32C193.378 179.619 193.452 179.901 193.602 180.168C193.751 180.424 193.954 180.653 194.21 180.856C194.466 181.048 194.754 181.203 195.074 181.32C195.404 181.427 195.746 181.48 196.098 181.48C196.45 181.48 196.786 181.427 197.106 181.32C197.436 181.203 197.73 181.048 197.986 180.856C198.242 180.653 198.444 180.424 198.594 180.168C198.743 179.901 198.818 179.619 198.818 179.32V178.68C198.818 178.381 198.743 178.104 198.594 177.848C198.444 177.581 198.242 177.352 197.986 177.16C197.73 176.957 197.436 176.803 197.106 176.696C196.786 176.579 196.45 176.52 196.098 176.52ZM217.562 189.176H216.426V174.552H217.562V189.176ZM213.306 175.88V185.32H206.538V175.88H213.306ZM212.186 176.904H207.658V184.296H212.186V176.904ZM231.219 183.752V186.968H222.883V188.312H231.651V189.256H221.779V186.04H230.115V184.696H221.699V183.752H231.219ZM233.219 181.528V182.488H219.779V181.528H233.219ZM221.747 174.936H231.139V178.088H222.867V179.368H231.459V180.312H221.795V177.16H230.067V175.88H221.747V174.936ZM53.8343 212.576H62.6183V218.144H53.8343V212.576ZM54.9223 217.136H61.5303V213.584H54.9223V217.136ZM51.8983 204.432H58.6023V205.424H53.0183V209.632C53.8183 209.632 54.5223 209.632 55.1303 209.632C55.7383 209.621 56.2983 209.605 56.8103 209.584C57.333 209.552 57.8343 209.515 58.3143 209.472C58.805 209.429 59.3383 209.376 59.9143 209.312L60.0423 210.304C59.6476 210.357 59.2743 210.4 58.9223 210.432C58.5703 210.464 58.2183 210.496 57.8663 210.528C57.5143 210.549 57.141 210.571 56.7463 210.592C56.3623 210.603 55.9356 210.613 55.4663 210.624C54.997 210.624 54.469 210.629 53.8823 210.64C53.3063 210.64 52.645 210.64 51.8983 210.64V204.432ZM62.6183 206.992H64.8583V207.984H62.6183V211.712H61.4983V203.552H62.6183V206.992ZM73.1548 210.32C73.1548 211.664 72.8348 212.709 72.1948 213.456C71.5655 214.192 70.6855 214.56 69.5548 214.56C68.4241 214.56 67.5388 214.192 66.8988 213.456C66.2695 212.709 65.9548 211.664 65.9548 210.32V208.816C65.9548 207.483 66.2695 206.448 66.8988 205.712C67.5388 204.965 68.4241 204.592 69.5548 204.592C70.6855 204.592 71.5655 204.965 72.1948 205.712C72.8348 206.459 73.1548 207.499 73.1548 208.832V210.32ZM72.0508 209.024C72.0508 208.416 71.9921 207.899 71.8748 207.472C71.7575 207.045 71.5868 206.699 71.3628 206.432C71.1495 206.155 70.8881 205.957 70.5788 205.84C70.2695 205.712 69.9281 205.648 69.5548 205.648C69.1815 205.648 68.8401 205.712 68.5308 205.84C68.2215 205.957 67.9548 206.155 67.7308 206.432C67.5175 206.699 67.3521 207.045 67.2348 207.472C67.1175 207.899 67.0588 208.416 67.0588 209.024V210.128C67.0588 210.736 67.1175 211.259 67.2348 211.696C67.3521 212.123 67.5175 212.475 67.7308 212.752C67.9548 213.019 68.2215 213.216 68.5308 213.344C68.8401 213.461 69.1815 213.52 69.5548 213.52C69.9281 213.52 70.2695 213.461 70.5788 213.344C70.8881 213.216 71.1495 213.019 71.3628 212.752C71.5868 212.475 71.7575 212.123 71.8748 211.696C71.9921 211.259 72.0508 210.736 72.0508 210.128V209.024ZM76.8028 209.04H79.2348V210.048H76.8028V218.176H75.6668V203.552H76.8028V209.04ZM94.9293 204.192V209.344H85.5213V204.192H94.9293ZM86.6253 208.368H93.8253V205.152H86.6253V208.368ZM96.9453 211.008V211.968H90.9453V215.056H89.8253V211.968H83.5053V211.008H96.9453ZM86.6253 217.008H95.2653V218H85.4893V213.648H86.6253V217.008ZM109.306 211.824V218.144H100.538V211.824H101.642V213.856H108.202V211.824H109.306ZM98.5858 204.432H105.29V205.424H99.7058V209.456C100.506 209.456 101.21 209.456 101.818 209.456C102.426 209.445 102.986 209.429 103.498 209.408C104.02 209.376 104.522 209.339 105.002 209.296C105.492 209.253 106.026 209.2 106.602 209.136L106.73 210.128C106.335 210.181 105.962 210.224 105.61 210.256C105.258 210.288 104.906 210.32 104.554 210.352C104.202 210.373 103.828 210.395 103.434 210.416C103.05 210.427 102.623 210.437 102.154 210.448C101.684 210.448 101.156 210.453 100.57 210.464C99.9938 210.464 99.3325 210.464 98.5858 210.464V204.432ZM108.202 217.136V214.848H101.642V217.136H108.202ZM109.306 206.736H111.546V207.728H109.306V210.96H108.186V203.552H109.306V206.736ZM125.57 210.096V211.056H112.13V210.096H125.57ZM123.426 206.592C123.426 206.965 123.309 207.301 123.074 207.6C122.84 207.899 122.514 208.155 122.098 208.368C121.693 208.571 121.208 208.731 120.642 208.848C120.088 208.955 119.49 209.008 118.85 209.008C118.21 209.008 117.608 208.955 117.042 208.848C116.488 208.731 116.002 208.571 115.586 208.368C115.181 208.155 114.861 207.899 114.626 207.6C114.392 207.301 114.274 206.965 114.274 206.592V206.112C114.274 205.728 114.392 205.387 114.626 205.088C114.861 204.789 115.181 204.539 115.586 204.336C116.002 204.123 116.488 203.963 117.042 203.856C117.608 203.749 118.21 203.696 118.85 203.696C119.49 203.696 120.088 203.755 120.642 203.872C121.208 203.979 121.693 204.139 122.098 204.352C122.514 204.555 122.84 204.805 123.074 205.104C123.309 205.403 123.426 205.739 123.426 206.112V206.592ZM115.378 206.544C115.378 206.757 115.469 206.96 115.65 207.152C115.832 207.333 116.077 207.493 116.386 207.632C116.706 207.771 117.074 207.877 117.49 207.952C117.917 208.027 118.37 208.064 118.85 208.064C119.33 208.064 119.778 208.027 120.194 207.952C120.621 207.877 120.989 207.771 121.298 207.632C121.618 207.493 121.869 207.333 122.05 207.152C122.232 206.96 122.322 206.757 122.322 206.544V206.16C122.322 205.947 122.232 205.749 122.05 205.568C121.869 205.376 121.618 205.216 121.298 205.088C120.989 204.949 120.621 204.843 120.194 204.768C119.778 204.683 119.33 204.64 118.85 204.64C118.37 204.64 117.917 204.683 117.49 204.768C117.074 204.843 116.706 204.949 116.386 205.088C116.077 205.216 115.832 205.376 115.65 205.568C115.469 205.749 115.378 205.947 115.378 206.16V206.544ZM123.57 212.336V215.744H115.25V217.296H124.002V218.24H114.146V214.816H122.466V213.28H114.066V212.336H123.57ZM130.625 204.992H137.009V205.984H134.433V208.16C134.433 208.533 134.443 208.853 134.465 209.12C134.497 209.387 134.545 209.632 134.609 209.856C134.683 210.08 134.785 210.299 134.913 210.512C135.041 210.715 135.206 210.944 135.409 211.2C135.675 211.531 135.995 211.904 136.369 212.32C136.742 212.725 137.153 213.152 137.601 213.6L136.865 214.32C136.683 214.149 136.497 213.963 136.305 213.76C136.123 213.547 135.937 213.339 135.745 213.136C135.563 212.933 135.387 212.736 135.217 212.544C135.057 212.352 134.907 212.181 134.769 212.032C134.534 211.765 134.337 211.52 134.177 211.296C134.027 211.061 133.937 210.901 133.905 210.816H133.889C133.867 210.901 133.787 211.051 133.649 211.264C133.521 211.477 133.334 211.728 133.089 212.016C132.79 212.357 132.454 212.736 132.081 213.152C131.707 213.557 131.265 214.011 130.753 214.512L130.001 213.76C130.235 213.536 130.47 213.307 130.705 213.072C130.939 212.837 131.158 212.608 131.361 212.384C131.574 212.16 131.766 211.952 131.937 211.76C132.118 211.557 132.267 211.376 132.385 211.216C132.577 210.971 132.731 210.741 132.849 210.528C132.977 210.315 133.073 210.091 133.137 209.856C133.201 209.621 133.243 209.371 133.265 209.104C133.297 208.827 133.313 208.512 133.313 208.16V205.984H130.625V204.992ZM138.817 208.496V203.856H139.937V217.456H138.817V209.52H136.225V208.496H138.817ZM142.785 218.176H141.665V203.552H142.785V218.176ZM149.017 208.592C148.985 208.709 148.852 208.891 148.617 209.136C148.393 209.381 148.111 209.653 147.769 209.952C147.631 210.08 147.46 210.224 147.257 210.384C147.065 210.544 146.857 210.709 146.633 210.88C146.42 211.051 146.201 211.221 145.977 211.392C145.764 211.563 145.567 211.712 145.385 211.84L144.697 211.04C145.177 210.699 145.657 210.341 146.137 209.968C146.617 209.584 147.055 209.2 147.449 208.816C147.641 208.624 147.801 208.443 147.929 208.272C148.057 208.101 148.153 207.931 148.217 207.76C148.292 207.589 148.34 207.413 148.361 207.232C148.393 207.04 148.409 206.837 148.409 206.624V205.408H145.113V204.432H152.697V205.408H149.545V206.576C149.545 206.811 149.556 207.019 149.577 207.2C149.599 207.381 149.647 207.557 149.721 207.728C149.807 207.899 149.924 208.075 150.073 208.256C150.233 208.427 150.441 208.624 150.697 208.848C150.953 209.061 151.289 209.323 151.705 209.632C152.121 209.941 152.559 210.251 153.017 210.56L152.361 211.344C152.031 211.12 151.695 210.88 151.353 210.624C151.012 210.368 150.719 210.144 150.473 209.952C150.1 209.643 149.775 209.365 149.497 209.12C149.22 208.875 149.065 208.699 149.033 208.592H149.017ZM146.825 212.88H155.993V218.288H154.873V213.872H146.825V212.88ZM155.993 207.2H158.233V208.192H155.993V212.016H154.873V203.552H155.993V207.2ZM162.45 211.792C162.002 211.792 161.591 211.733 161.218 211.616C160.855 211.499 160.54 211.344 160.274 211.152C160.018 210.949 159.815 210.72 159.666 210.464C159.527 210.208 159.458 209.941 159.458 209.664V209.104C159.458 208.816 159.527 208.544 159.666 208.288C159.815 208.032 160.018 207.808 160.274 207.616C160.54 207.424 160.855 207.269 161.218 207.152C161.591 207.035 162.002 206.976 162.45 206.976C162.898 206.976 163.303 207.035 163.666 207.152C164.039 207.269 164.354 207.424 164.61 207.616C164.876 207.808 165.079 208.032 165.218 208.288C165.367 208.544 165.442 208.816 165.442 209.104V209.664C165.442 209.941 165.367 210.208 165.218 210.464C165.079 210.72 164.876 210.949 164.61 211.152C164.354 211.344 164.039 211.499 163.666 211.616C163.303 211.733 162.898 211.792 162.45 211.792ZM168.034 207.232H170.114V203.552H171.218V212.208H170.114V208.24H168.034V211.984H166.93V203.744H168.034V207.232ZM166.258 218.224C165.916 217.936 165.607 217.669 165.33 217.424C165.063 217.189 164.828 216.981 164.626 216.8C164.06 216.288 163.735 215.936 163.65 215.744C163.586 215.851 163.474 215.989 163.314 216.16C163.164 216.331 162.898 216.571 162.514 216.88C162.311 217.061 162.066 217.259 161.778 217.472C161.5 217.696 161.175 217.947 160.802 218.224L160.194 217.424C160.535 217.168 160.844 216.933 161.122 216.72C161.399 216.517 161.639 216.331 161.842 216.16C162.14 215.904 162.375 215.685 162.546 215.504C162.716 215.312 162.844 215.131 162.93 214.96C163.015 214.789 163.063 214.613 163.074 214.432C163.095 214.24 163.106 214.016 163.106 213.76V212.896H164.21V213.824C164.21 214.069 164.215 214.277 164.226 214.448C164.236 214.608 164.274 214.763 164.338 214.912C164.402 215.061 164.503 215.221 164.642 215.392C164.791 215.563 164.994 215.771 165.25 216.016C165.516 216.293 165.852 216.581 166.258 216.88C166.46 216.731 166.647 216.581 166.818 216.432C166.988 216.283 167.138 216.144 167.266 216.016C167.522 215.771 167.719 215.563 167.858 215.392C168.007 215.221 168.114 215.061 168.178 214.912C168.242 214.763 168.279 214.608 168.29 214.448C168.3 214.277 168.306 214.069 168.306 213.824V212.896H169.41V213.76C169.41 214.016 169.415 214.24 169.426 214.432C169.447 214.613 169.5 214.789 169.586 214.96C169.671 215.131 169.794 215.312 169.954 215.504C170.124 215.685 170.364 215.904 170.674 216.16C170.876 216.331 171.116 216.517 171.394 216.72C171.671 216.933 171.98 217.168 172.322 217.424L171.714 218.224C171.34 217.947 171.01 217.696 170.722 217.472C170.444 217.259 170.204 217.061 170.002 216.88C169.618 216.571 169.346 216.331 169.186 216.16C169.036 215.989 168.93 215.851 168.866 215.744C168.78 215.936 168.455 216.288 167.89 216.8C167.687 216.981 167.447 217.189 167.17 217.424C166.903 217.669 166.599 217.936 166.258 218.224ZM162.45 207.904C161.863 207.904 161.388 208.032 161.026 208.288C160.663 208.533 160.482 208.832 160.482 209.184V209.584C160.482 209.936 160.663 210.24 161.026 210.496C161.388 210.741 161.863 210.864 162.45 210.864C163.036 210.864 163.511 210.741 163.874 210.496C164.236 210.24 164.418 209.936 164.418 209.584V209.184C164.418 208.832 164.236 208.533 163.874 208.288C163.511 208.032 163.036 207.904 162.45 207.904ZM161.89 205.312V203.52H163.01V205.312H165.746V206.288H158.914V205.312H161.89ZM184.618 212.56V218.16H175.082V212.56H176.186V214.352H183.514V212.56H184.618ZM185.098 209.28C184.533 209.067 183.957 208.832 183.37 208.576C182.794 208.32 182.304 208.096 181.898 207.904C181.216 207.584 180.72 207.317 180.41 207.104C180.101 206.891 179.92 206.709 179.866 206.56H179.85C179.797 206.72 179.616 206.907 179.306 207.12C178.997 207.333 178.501 207.6 177.818 207.92C177.413 208.112 176.922 208.336 176.346 208.592C175.77 208.848 175.2 209.083 174.634 209.296L174.17 208.384C174.896 208.107 175.546 207.845 176.122 207.6C176.698 207.355 177.178 207.136 177.562 206.944C177.925 206.773 178.218 206.613 178.442 206.464C178.666 206.304 178.842 206.144 178.97 205.984C179.098 205.813 179.184 205.632 179.226 205.44C179.269 205.237 179.29 204.997 179.29 204.72V203.696H180.426V204.72C180.426 204.997 180.448 205.237 180.49 205.44C180.533 205.632 180.613 205.813 180.73 205.984C180.858 206.144 181.034 206.304 181.258 206.464C181.482 206.613 181.776 206.773 182.138 206.944C182.522 207.136 183.002 207.355 183.578 207.6C184.165 207.845 184.816 208.107 185.53 208.384L185.098 209.28ZM183.514 217.152V215.344H176.186V217.152H183.514ZM186.57 210.384V211.36H173.13V210.384H186.57ZM199.539 218.176H198.403V203.552H199.539V218.176ZM189.843 213.136H191.939C192.707 213.136 193.491 213.109 194.291 213.056C195.101 212.992 195.944 212.885 196.819 212.736L196.963 213.744C196.099 213.893 195.219 214 194.323 214.064C193.427 214.128 192.595 214.16 191.827 214.16H188.707V204.752H189.843V213.136ZM202.571 204.88H209.227V205.904H203.707V213.248H205.595C206.417 213.248 207.222 213.221 208.011 213.168C208.811 213.104 209.665 212.997 210.571 212.848L210.715 213.856C209.862 214.005 208.971 214.112 208.043 214.176C207.126 214.24 206.214 214.272 205.307 214.272H202.571V204.88ZM213.099 208.976H215.531V209.984H213.099V218.176H211.963V203.552H213.099V208.976ZM216.66 215.28H218.276V216.88H216.66V215.28Z" fill="#332C28"/>
</svg>
