<svg width="286" height="246" viewBox="0 0 286 246" fill="none" xmlns="http://www.w3.org/2000/svg">
<path d="M163.833 40.7917L140.062 64.5833L131.229 55.75L134.167 52.8125L140.062 58.7083L160.896 37.875L163.833 40.7917ZM159.229 51.2917C159.5 52.4792 159.667 53.7292 159.667 55C159.667 64.2083 152.208 71.6667 143 71.6667C133.792 71.6667 126.333 64.2083 126.333 55C126.333 45.7917 133.792 38.3333 143 38.3333C146.292 38.3333 149.333 39.2917 151.917 40.9375L154.917 37.9375C151.542 35.5625 147.437 34.1667 143 34.1667C131.5 34.1667 122.167 43.5 122.167 55C122.167 66.5 131.5 75.8333 143 75.8333C154.5 75.8333 163.833 66.5 163.833 55C163.833 52.5208 163.375 50.1458 162.583 47.9375L159.229 51.2917Z" fill="#98A8D3"/>
<path d="M55.9472 122.472H46.3472V117.064H55.9472V122.472ZM50.5392 128.056V125.208H44.3792V123.864H57.9152V125.208H52.1392V128.056H50.5392ZM47.9152 129.704H56.2512V131.08H46.3312V126.728H47.9152V129.704ZM54.3792 118.392H47.9152V121.144H54.3792V118.392ZM70.3397 124.76V131.24H61.3477V124.76H62.9157V126.632H68.7717V124.76H70.3397ZM67.5877 123.16C67.0224 123.235 66.4944 123.293 66.0037 123.336C65.513 123.379 64.969 123.416 64.3717 123.448C63.7744 123.469 63.081 123.485 62.2917 123.496C61.5024 123.507 60.5317 123.512 59.3797 123.512V117.352H66.2117V118.712H60.9317V122.152C61.753 122.152 62.4464 122.147 63.0117 122.136C63.5877 122.125 64.1104 122.109 64.5797 122.088C65.049 122.067 65.5024 122.04 65.9397 122.008C66.377 121.965 66.873 121.912 67.4277 121.848L67.5877 123.16ZM72.4357 120.92H70.3397V124.04H68.7717V116.488H70.3397V119.544H72.4357V120.92ZM68.7717 129.896V127.96H62.9157V129.896H68.7717ZM77.3722 127.944C76.8069 127.944 76.3055 127.859 75.8682 127.688C75.4309 127.507 75.0575 127.272 74.7482 126.984C74.4389 126.696 74.2042 126.365 74.0442 125.992C73.8842 125.619 73.8042 125.24 73.8042 124.856V123.928C73.8042 123.544 73.8842 123.165 74.0442 122.792C74.2042 122.419 74.4389 122.088 74.7482 121.8C75.0575 121.501 75.4309 121.267 75.8682 121.096C76.3055 120.915 76.8069 120.824 77.3722 120.824C77.9269 120.824 78.4229 120.915 78.8602 121.096C79.3082 121.267 79.6869 121.501 79.9962 121.8C80.3055 122.088 80.5402 122.419 80.7002 122.792C80.8602 123.165 80.9402 123.544 80.9402 123.928V124.856C80.9402 125.24 80.8602 125.619 80.7002 125.992C80.5402 126.365 80.3055 126.696 79.9962 126.984C79.6869 127.272 79.3082 127.507 78.8602 127.688C78.4229 127.859 77.9269 127.944 77.3722 127.944ZM86.8282 123.72H84.5562V131.24H82.9722V116.488H84.5562V122.344H86.8282V123.72ZM77.3722 122.152C76.7322 122.152 76.2255 122.333 75.8522 122.696C75.4789 123.048 75.2922 123.517 75.2922 124.104V124.68C75.2922 125.267 75.4789 125.736 75.8522 126.088C76.2255 126.44 76.7322 126.616 77.3722 126.616C78.0122 126.616 78.5189 126.44 78.8922 126.088C79.2655 125.736 79.4522 125.267 79.4522 124.68V124.104C79.4522 123.517 79.2655 123.048 78.8922 122.696C78.5189 122.333 78.0122 122.152 77.3722 122.152ZM76.5882 118.664V116.584H78.1722V118.664H81.5962V120.008H73.0682V118.664H76.5882ZM97.9567 131.24V116.488H99.5407V131.24H97.9567ZM91.9407 123.864C91.866 124.045 91.754 124.227 91.6047 124.408C91.466 124.589 91.2687 124.819 91.0127 125.096C90.682 125.459 90.3034 125.853 89.8767 126.28C89.45 126.696 88.9647 127.155 88.4207 127.656L87.3807 126.584C88.3514 125.72 89.194 124.893 89.9087 124.104C90.154 123.827 90.3567 123.571 90.5167 123.336C90.6767 123.101 90.7994 122.872 90.8847 122.648C90.9807 122.413 91.0447 122.179 91.0767 121.944C91.1194 121.699 91.1407 121.432 91.1407 121.144V117.544H92.7407V121.144C92.7407 121.464 92.762 121.752 92.8047 122.008C92.8474 122.253 92.9167 122.493 93.0127 122.728C93.1087 122.952 93.2367 123.181 93.3967 123.416C93.5674 123.64 93.7754 123.885 94.0207 124.152C94.362 124.525 94.7194 124.893 95.0927 125.256C95.466 125.608 95.8927 125.997 96.3727 126.424L95.3487 127.512C94.794 127 94.3247 126.557 93.9407 126.184C93.5674 125.8 93.226 125.443 92.9167 125.112C92.6927 124.867 92.49 124.637 92.3087 124.424C92.138 124.211 92.0207 124.024 91.9567 123.864H91.9407ZM105.037 117.752V123.288H113.437V124.632H103.453V117.752H105.037ZM115.165 127.928V129.272H101.629V127.928H115.165ZM118.326 123.176V126.28H119.67C120.203 126.28 120.688 126.275 121.126 126.264C121.563 126.253 121.974 126.237 122.358 126.216C122.752 126.184 123.136 126.152 123.51 126.12C123.894 126.077 124.294 126.024 124.71 125.96L124.886 127.304C124.512 127.357 124.134 127.405 123.75 127.448C123.376 127.491 122.966 127.528 122.518 127.56C122.08 127.581 121.595 127.603 121.062 127.624C120.539 127.635 119.947 127.64 119.286 127.64H116.758V121.848H121.782V119.032H116.71V117.672H123.35V123.176H118.326ZM129.798 123.256H127.526V131.24H125.942V116.488H127.526V121.88H129.798V123.256ZM139.972 131.24V126.168H134.004V124.824H147.54V126.168H141.572V131.24H139.972ZM142.548 122.024C142.015 121.757 141.61 121.523 141.332 121.32C141.066 121.117 140.879 120.925 140.772 120.744H140.756C140.66 120.925 140.474 121.123 140.196 121.336C139.919 121.539 139.514 121.773 138.98 122.04C138.543 122.253 138.031 122.493 137.444 122.76C136.858 123.027 136.234 123.288 135.572 123.544L134.948 122.248C135.546 122.024 136.154 121.779 136.772 121.512C137.391 121.235 137.956 120.957 138.468 120.68C138.735 120.531 138.964 120.381 139.156 120.232C139.348 120.083 139.503 119.917 139.62 119.736C139.748 119.544 139.839 119.336 139.892 119.112C139.946 118.877 139.972 118.611 139.972 118.312V117H141.556V118.312C141.556 118.611 141.583 118.877 141.636 119.112C141.69 119.336 141.775 119.544 141.892 119.736C142.01 119.917 142.159 120.083 142.34 120.232C142.532 120.381 142.767 120.531 143.044 120.68C143.556 120.957 144.122 121.235 144.74 121.512C145.359 121.779 145.967 122.024 146.564 122.248L145.956 123.528C145.295 123.272 144.671 123.011 144.084 122.744C143.498 122.477 142.986 122.237 142.548 122.024ZM161.853 127.928V129.272H148.317V127.928H153.213V122.568H154.797V127.928H161.853ZM159.869 117.816V119.752C159.869 120.467 159.858 121.112 159.837 121.688C159.815 122.264 159.778 122.808 159.725 123.32C159.682 123.821 159.629 124.307 159.565 124.776C159.501 125.235 159.421 125.715 159.325 126.216L157.741 126.024C157.933 125.021 158.071 124.067 158.157 123.16C158.242 122.253 158.285 121.304 158.285 120.312V119.192H149.981V117.816H159.869ZM166.997 127.944C166.432 127.944 165.931 127.859 165.493 127.688C165.056 127.507 164.683 127.272 164.373 126.984C164.064 126.696 163.829 126.365 163.669 125.992C163.509 125.619 163.429 125.24 163.429 124.856V123.928C163.429 123.544 163.509 123.165 163.669 122.792C163.829 122.419 164.064 122.088 164.373 121.8C164.683 121.501 165.056 121.267 165.493 121.096C165.931 120.915 166.432 120.824 166.997 120.824C167.552 120.824 168.048 120.915 168.485 121.096C168.933 121.267 169.312 121.501 169.621 121.8C169.931 122.088 170.165 122.419 170.325 122.792C170.485 123.165 170.565 123.544 170.565 123.928V124.856C170.565 125.24 170.485 125.619 170.325 125.992C170.165 126.365 169.931 126.696 169.621 126.984C169.312 127.272 168.933 127.507 168.485 127.688C168.048 127.859 167.552 127.944 166.997 127.944ZM176.453 123.72H174.181V131.24H172.597V116.488H174.181V122.344H176.453V123.72ZM166.997 122.152C166.357 122.152 165.851 122.333 165.477 122.696C165.104 123.048 164.917 123.517 164.917 124.104V124.68C164.917 125.267 165.104 125.736 165.477 126.088C165.851 126.44 166.357 126.616 166.997 126.616C167.637 126.616 168.144 126.44 168.517 126.088C168.891 125.736 169.077 125.267 169.077 124.68V124.104C169.077 123.517 168.891 123.048 168.517 122.696C168.144 122.333 167.637 122.152 166.997 122.152ZM166.213 118.664V116.584H167.797V118.664H171.221V120.008H162.693V118.664H166.213ZM187.79 125.416V126.712C187.79 126.925 187.795 127.107 187.806 127.256C187.827 127.405 187.859 127.544 187.902 127.672C187.955 127.8 188.03 127.928 188.126 128.056C188.232 128.184 188.366 128.323 188.526 128.472C188.803 128.728 189.118 129.005 189.47 129.304C189.822 129.603 190.206 129.907 190.622 130.216L189.758 131.304C189.374 131.016 188.995 130.712 188.622 130.392C188.259 130.083 187.971 129.837 187.758 129.656C187.544 129.464 187.379 129.299 187.262 129.16C187.155 129.021 187.075 128.909 187.022 128.824C186.968 128.92 186.894 129.032 186.798 129.16C186.712 129.288 186.579 129.443 186.398 129.624C186.131 129.88 185.822 130.157 185.47 130.456C185.128 130.755 184.776 131.043 184.414 131.32C184.051 131.043 183.694 130.755 183.342 130.456C183 130.157 182.696 129.88 182.43 129.624C182.248 129.443 182.11 129.288 182.014 129.16C181.928 129.032 181.859 128.92 181.806 128.824C181.752 128.909 181.667 129.021 181.55 129.16C181.443 129.299 181.283 129.464 181.07 129.656C180.856 129.837 180.563 130.083 180.19 130.392C179.827 130.712 179.454 131.016 179.07 131.304L178.206 130.216C178.622 129.907 179.006 129.603 179.358 129.304C179.71 129.005 180.024 128.728 180.302 128.472C180.462 128.323 180.59 128.184 180.686 128.056C180.792 127.928 180.867 127.8 180.91 127.672C180.963 127.544 180.995 127.405 181.006 127.256C181.027 127.107 181.038 126.925 181.038 126.712V125.416H182.574V126.712C182.574 126.936 182.579 127.128 182.59 127.288C182.611 127.437 182.643 127.576 182.686 127.704C182.728 127.832 182.792 127.96 182.878 128.088C182.963 128.205 183.08 128.344 183.23 128.504C183.379 128.675 183.55 128.845 183.742 129.016C183.934 129.187 184.158 129.384 184.414 129.608C184.67 129.384 184.894 129.187 185.086 129.016C185.278 128.845 185.448 128.675 185.598 128.504C185.736 128.344 185.848 128.205 185.934 128.088C186.03 127.96 186.099 127.832 186.142 127.704C186.184 127.576 186.211 127.437 186.222 127.288C186.243 127.128 186.254 126.936 186.254 126.712V125.416H187.79ZM187.63 124.568V122.04H184.814V120.696H187.63V119.512H184.814V118.168H187.63V116.488H189.198V124.568H187.63ZM181.422 121.672C181.379 121.811 181.251 122.003 181.038 122.248C180.824 122.493 180.595 122.728 180.35 122.952C180.019 123.261 179.635 123.603 179.198 123.976C178.76 124.339 178.328 124.691 177.902 125.032L176.958 123.912C177.47 123.517 177.955 123.123 178.414 122.728C178.883 122.333 179.256 121.997 179.534 121.72C179.736 121.517 179.902 121.325 180.03 121.144C180.168 120.952 180.275 120.76 180.35 120.568C180.435 120.365 180.494 120.152 180.526 119.928C180.558 119.704 180.574 119.453 180.574 119.176V117.08H182.174V119.112C182.174 119.357 182.179 119.581 182.19 119.784C182.211 119.976 182.248 120.157 182.302 120.328C182.355 120.499 182.435 120.669 182.542 120.84C182.659 121 182.814 121.165 183.006 121.336C183.379 121.677 183.784 122.029 184.222 122.392C184.67 122.744 185.134 123.091 185.614 123.432L184.686 124.536C184.27 124.227 183.87 123.917 183.486 123.608C183.112 123.299 182.734 122.984 182.35 122.664C182.104 122.461 181.902 122.275 181.742 122.104C181.592 121.933 181.491 121.789 181.438 121.672H181.422ZM202.854 125.512V131.24H193.19V125.512H194.758V127.016H201.286V125.512H202.854ZM203.174 122.456C202.609 122.243 202.049 122.019 201.494 121.784C200.95 121.549 200.476 121.336 200.07 121.144C199.366 120.803 198.865 120.531 198.566 120.328C198.268 120.115 198.092 119.933 198.038 119.784H198.022C197.969 119.944 197.793 120.125 197.494 120.328C197.196 120.531 196.694 120.803 195.99 121.144C195.585 121.336 195.11 121.549 194.566 121.784C194.022 122.019 193.462 122.243 192.886 122.456L192.278 121.16C193.036 120.883 193.708 120.621 194.294 120.376C194.881 120.12 195.366 119.885 195.75 119.672C196.038 119.523 196.273 119.379 196.454 119.24C196.646 119.101 196.801 118.957 196.918 118.808C197.036 118.648 197.116 118.472 197.158 118.28C197.212 118.088 197.238 117.853 197.238 117.576V116.648H198.806V117.576C198.806 117.853 198.828 118.088 198.87 118.28C198.924 118.472 199.004 118.648 199.11 118.808C199.228 118.968 199.382 119.117 199.574 119.256C199.766 119.384 200.006 119.523 200.294 119.672C200.7 119.875 201.196 120.109 201.782 120.376C202.38 120.632 203.046 120.893 203.782 121.16L203.174 122.456ZM204.79 123.224V124.568H191.254V123.224H204.79ZM201.286 129.896V128.312H194.758V129.896H201.286ZM216.287 131.24V116.488H217.871V131.24H216.287ZM208.351 117.704V125.896H209.775C210.66 125.896 211.513 125.869 212.335 125.816C213.167 125.752 213.993 125.645 214.815 125.496L214.991 126.872C214.521 126.957 214.079 127.027 213.663 127.08C213.247 127.133 212.815 127.176 212.367 127.208C211.929 127.24 211.465 127.261 210.975 127.272C210.484 127.283 209.935 127.288 209.327 127.288H206.751V117.704H208.351ZM227.399 119.192H222.199V125.976H223.047C224.093 125.976 225.069 125.944 225.975 125.88C226.893 125.805 227.805 125.699 228.711 125.56L228.919 126.888C227.97 127.059 226.994 127.181 225.991 127.256C224.999 127.32 223.906 127.352 222.711 127.352H220.615V117.816H227.399V119.192ZM233.703 123.192H231.431V131.24H229.847V116.488H231.431V121.816H233.703V123.192ZM235.12 128.232H236.944V130.072H235.12V128.232Z" fill="#98A8D3"/>
<path d="M47.3554 157.136V153.584H44.8274V152.64H47.0834V147.76H44.9714V146.816H55.3074V147.76H53.1954V152.64H55.4514V153.584H52.9234V157.136H56.8594V158.112H43.4194V157.136H47.3554ZM48.2034 152.64H52.0754V147.76H48.2034V152.64ZM48.4754 157.136H51.8034V153.584H48.4754V157.136ZM69.7959 160.176H68.6599V145.552H69.7959V160.176ZM60.5479 153.136C60.8039 152.848 61.0065 152.587 61.1559 152.352C61.3052 152.117 61.4225 151.888 61.5079 151.664C61.5932 151.429 61.6465 151.189 61.6679 150.944C61.6999 150.699 61.7159 150.416 61.7159 150.096V146.608H62.8839V150.016C62.8839 150.325 62.8945 150.597 62.9159 150.832C62.9372 151.056 62.9799 151.275 63.0439 151.488C63.1079 151.691 63.2039 151.893 63.3319 152.096C63.4599 152.299 63.6305 152.523 63.8439 152.768C64.1639 153.141 64.5532 153.563 65.0119 154.032C65.4812 154.501 66.0199 155.008 66.6279 155.552L65.8919 156.32C65.3799 155.84 64.9052 155.387 64.4679 154.96C64.0412 154.523 63.6679 154.133 63.3479 153.792C63.1025 153.536 62.8785 153.291 62.6759 153.056C62.4839 152.821 62.3665 152.651 62.3239 152.544H62.3079C62.2972 152.597 62.2545 152.683 62.1799 152.8C62.1052 152.907 62.0092 153.029 61.8919 153.168C61.7852 153.307 61.6679 153.456 61.5399 153.616C61.4119 153.765 61.2892 153.904 61.1719 154.032C61.0332 154.181 60.8625 154.357 60.6599 154.56C60.4679 154.763 60.2599 154.976 60.0359 155.2C59.8119 155.424 59.5772 155.653 59.3319 155.888C59.0865 156.123 58.8465 156.341 58.6119 156.544L57.8599 155.76C58.3932 155.291 58.8785 154.843 59.3159 154.416C59.7639 153.989 60.1745 153.563 60.5479 153.136ZM82.0124 154.144C81.5324 154.208 80.9937 154.267 80.3964 154.32C79.8097 154.363 79.1324 154.4 78.3644 154.432C77.607 154.464 76.743 154.491 75.7724 154.512C74.8017 154.523 73.687 154.528 72.4284 154.528V153.536C73.207 153.536 73.9217 153.536 74.5724 153.536C75.223 153.536 75.8257 153.525 76.3804 153.504V151.296H73.4844V146.256H80.4764V147.248H74.6044V150.304H80.5244V151.296H77.5004V153.488C77.9804 153.477 78.423 153.461 78.8284 153.44C79.2337 153.419 79.6124 153.397 79.9644 153.376C80.3164 153.344 80.6524 153.312 80.9724 153.28C81.2924 153.248 81.607 153.216 81.9164 153.184L82.0124 154.144ZM75.9484 159.008H84.5244V160H74.8124V155.92H75.9484V159.008ZM84.1564 156.496H83.0364V145.552H84.1564V156.496ZM101.531 146.192V151.344H92.1229V146.192H101.531ZM93.2269 150.368H100.427V147.152H93.2269V150.368ZM103.547 153.008V153.968H97.5469V157.056H96.4269V153.968H90.1069V153.008H103.547ZM93.2269 159.008H101.867V160H92.0909V155.648H93.2269V159.008ZM115.907 153.824V160.144H107.139V153.824H108.243V155.856H114.803V153.824H115.907ZM105.187 146.432H111.891V147.424H106.307V151.456C107.107 151.456 107.811 151.456 108.419 151.456C109.027 151.445 109.587 151.429 110.099 151.408C110.622 151.376 111.123 151.339 111.603 151.296C112.094 151.253 112.627 151.2 113.203 151.136L113.331 152.128C112.937 152.181 112.563 152.224 112.211 152.256C111.859 152.288 111.507 152.32 111.155 152.352C110.803 152.373 110.43 152.395 110.035 152.416C109.651 152.427 109.225 152.437 108.755 152.448C108.286 152.448 107.758 152.453 107.171 152.464C106.595 152.464 105.934 152.464 105.187 152.464V146.432ZM114.803 159.136V156.848H108.243V159.136H114.803ZM115.907 148.736H118.147V149.728H115.907V152.96H114.787V145.552H115.907V148.736ZM132.172 153.248V154.224H118.732V153.248H132.172ZM121.852 159.008H130.492V160H120.716V155.696H121.852V159.008ZM125.452 151.904C124.801 151.904 124.193 151.84 123.628 151.712C123.073 151.584 122.588 151.403 122.172 151.168C121.767 150.933 121.447 150.651 121.212 150.32C120.977 149.979 120.86 149.605 120.86 149.2V148.592C120.86 148.187 120.977 147.819 121.212 147.488C121.447 147.147 121.767 146.859 122.172 146.624C122.588 146.389 123.073 146.208 123.628 146.08C124.193 145.952 124.801 145.888 125.452 145.888C126.103 145.888 126.705 145.952 127.26 146.08C127.825 146.208 128.311 146.389 128.716 146.624C129.132 146.859 129.457 147.147 129.692 147.488C129.927 147.819 130.044 148.187 130.044 148.592V149.2C130.044 149.605 129.927 149.979 129.692 150.32C129.457 150.651 129.132 150.933 128.716 151.168C128.311 151.403 127.825 151.584 127.26 151.712C126.705 151.84 126.103 151.904 125.452 151.904ZM125.452 146.848C124.983 146.848 124.535 146.896 124.108 146.992C123.692 147.077 123.324 147.2 123.004 147.36C122.684 147.52 122.428 147.712 122.236 147.936C122.044 148.16 121.948 148.405 121.948 148.672V149.12C121.948 149.387 122.044 149.632 122.236 149.856C122.428 150.08 122.684 150.272 123.004 150.432C123.324 150.592 123.692 150.72 124.108 150.816C124.535 150.901 124.983 150.944 125.452 150.944C125.921 150.944 126.364 150.901 126.78 150.816C127.207 150.72 127.58 150.592 127.9 150.432C128.22 150.272 128.476 150.08 128.668 149.856C128.86 149.632 128.956 149.387 128.956 149.12V148.672C128.956 148.405 128.86 148.16 128.668 147.936C128.476 147.712 128.22 147.52 127.9 147.36C127.58 147.2 127.207 147.077 126.78 146.992C126.364 146.896 125.921 146.848 125.452 146.848ZM141.322 160.72H137.562V145.744H141.322V146.736H138.634V159.728H141.322V160.72ZM143.96 155.6H148.408V153.36H142.248V152.4H155.688V153.36H149.528V155.6H153.752V160.288H152.632V156.576H143.96V155.6ZM148.952 149.04C148.866 149.221 148.653 149.408 148.312 149.6C147.97 149.792 147.549 149.995 147.048 150.208C146.589 150.4 146.114 150.587 145.624 150.768C145.133 150.949 144.53 151.163 143.816 151.408L143.368 150.528C144.818 150.048 145.933 149.637 146.712 149.296C147.042 149.157 147.314 149.024 147.528 148.896C147.741 148.757 147.912 148.619 148.04 148.48C148.168 148.331 148.258 148.176 148.312 148.016C148.365 147.845 148.392 147.653 148.392 147.44V147.104H144.008V146.144H153.928V147.104H149.528V147.44C149.528 147.653 149.549 147.845 149.592 148.016C149.645 148.176 149.736 148.331 149.864 148.48C149.992 148.619 150.162 148.757 150.376 148.896C150.589 149.024 150.861 149.157 151.192 149.296C151.586 149.467 152.072 149.659 152.648 149.872C153.234 150.085 153.864 150.299 154.536 150.512L154.12 151.392C153.458 151.179 152.856 150.971 152.312 150.768C151.768 150.565 151.288 150.373 150.872 150.192C150.37 149.989 149.949 149.792 149.608 149.6C149.266 149.397 149.053 149.211 148.968 149.04H148.952ZM163.28 151.488C162.683 151.488 162.107 151.435 161.552 151.328C160.997 151.211 160.507 151.045 160.08 150.832C159.653 150.619 159.312 150.352 159.056 150.032C158.811 149.712 158.688 149.344 158.688 148.928V148.384C158.688 147.968 158.811 147.6 159.056 147.28C159.312 146.96 159.653 146.693 160.08 146.48C160.507 146.267 160.997 146.107 161.552 146C162.107 145.883 162.683 145.824 163.28 145.824C163.877 145.824 164.453 145.883 165.008 146C165.563 146.107 166.048 146.267 166.464 146.48C166.891 146.693 167.232 146.96 167.488 147.28C167.744 147.6 167.872 147.968 167.872 148.384V148.928C167.872 149.344 167.744 149.712 167.488 150.032C167.232 150.352 166.891 150.619 166.464 150.832C166.048 151.045 165.563 151.211 165.008 151.328C164.453 151.435 163.877 151.488 163.28 151.488ZM163.28 146.784C162.843 146.784 162.416 146.827 162 146.912C161.584 146.987 161.211 147.099 160.88 147.248C160.549 147.387 160.283 147.563 160.08 147.776C159.877 147.979 159.776 148.208 159.776 148.464V148.848C159.776 149.104 159.877 149.339 160.08 149.552C160.283 149.755 160.549 149.931 160.88 150.08C161.211 150.219 161.584 150.331 162 150.416C162.416 150.491 162.843 150.528 163.28 150.528C163.707 150.528 164.128 150.491 164.544 150.416C164.971 150.331 165.349 150.219 165.68 150.08C166.011 149.931 166.277 149.755 166.48 149.552C166.683 149.339 166.784 149.104 166.784 148.848V148.464C166.784 148.208 166.683 147.979 166.48 147.776C166.277 147.563 166.011 147.387 165.68 147.248C165.349 147.099 164.971 146.987 164.544 146.912C164.128 146.827 163.707 146.784 163.28 146.784ZM170 152.672V153.648H156.56V152.672H170ZM158.528 155.2H168.032V160.144H158.528V155.2ZM159.616 159.136H166.944V156.208H159.616V159.136ZM180.783 157.136V153.84H176.031V152.896H178.286V147.776H176.174V146.832H186.511V147.776H184.399V152.896H186.655V153.84H181.903V157.136H188.063V158.112H174.623V157.136H180.783ZM179.407 152.896H183.279V147.776H179.407V152.896ZM200.583 154.336H190.903V146.752H200.455V147.712H192.007V150.064H200.375V151.024H192.007V153.376H200.583V154.336ZM202.375 157.136V158.112H188.935V157.136H202.375ZM215.104 145.984V146.912H213.008V149.744H215.168V150.672H210.528V152.176H216.688V153.136H203.248V152.176H209.408V150.672H204.768V149.744H206.928V146.912H204.832V145.984H215.104ZM214.688 154.464V157.808H206.336V159.296H215.12V160.24H205.248V156.88H213.6V155.408H205.168V154.464H214.688ZM208.032 149.744H211.904V146.912H208.032V149.744ZM229.624 160.176H228.488V145.552H229.624V160.176ZM219.8 155.536H221.992C222.803 155.536 223.624 155.515 224.456 155.472C225.299 155.419 226.093 155.333 226.84 155.216L226.968 156.192C226.115 156.331 225.24 156.427 224.344 156.48C223.459 156.523 222.579 156.544 221.704 156.544H218.68V150.944H223.976V147.728H218.68V146.736H225.096V151.936H219.8V155.536ZM233.777 149.904C233.777 149.381 233.905 148.912 234.161 148.496C234.417 148.069 234.763 147.707 235.201 147.408C235.638 147.099 236.145 146.864 236.721 146.704C237.307 146.533 237.931 146.448 238.593 146.448C239.243 146.448 239.857 146.533 240.433 146.704C241.019 146.864 241.531 147.099 241.969 147.408C242.417 147.707 242.769 148.069 243.025 148.496C243.281 148.912 243.409 149.381 243.409 149.904V150.688C243.409 151.168 243.297 151.611 243.073 152.016C242.849 152.421 242.545 152.773 242.161 153.072C241.777 153.36 241.329 153.6 240.817 153.792C240.305 153.973 239.755 154.085 239.169 154.128V157.136H245.313V158.112H231.873V157.136H238.017V154.128C237.419 154.085 236.865 153.973 236.353 153.792C235.841 153.6 235.393 153.36 235.009 153.072C234.625 152.773 234.321 152.421 234.097 152.016C233.883 151.611 233.777 151.168 233.777 150.688V149.904ZM238.593 147.488C238.07 147.488 237.585 147.552 237.137 147.68C236.689 147.797 236.299 147.968 235.969 148.192C235.638 148.405 235.377 148.661 235.185 148.96C234.993 149.259 234.897 149.589 234.897 149.952V150.64C234.897 151.003 234.993 151.333 235.185 151.632C235.377 151.931 235.638 152.192 235.969 152.416C236.299 152.629 236.689 152.8 237.137 152.928C237.585 153.045 238.07 153.104 238.593 153.104C239.105 153.104 239.585 153.045 240.033 152.928C240.491 152.8 240.886 152.629 241.217 152.416C241.547 152.192 241.809 151.931 242.001 151.632C242.193 151.333 242.289 151.003 242.289 150.64V149.952C242.289 149.589 242.193 149.259 242.001 148.96C241.809 148.661 241.547 148.405 241.217 148.192C240.886 147.968 240.491 147.797 240.033 147.68C239.585 147.552 239.105 147.488 238.593 147.488ZM246.233 159.728H248.921V146.736H246.233V145.744H249.993V160.72H246.233V159.728ZM263.046 146.704V151.04H254.726V153.408H263.382V154.384H258.918V157.136H265.078V158.112H251.638V157.136H257.798V154.384H253.622V150.08H261.942V147.68H253.574V146.704H263.046ZM61.3983 175.992H67.7823V176.984H65.2063V179.16C65.2063 179.533 65.2169 179.853 65.2383 180.12C65.2703 180.387 65.3183 180.632 65.3823 180.856C65.4569 181.08 65.5583 181.299 65.6863 181.512C65.8143 181.715 65.9796 181.944 66.1823 182.2C66.4489 182.531 66.7689 182.904 67.1423 183.32C67.5156 183.725 67.9263 184.152 68.3743 184.6L67.6383 185.32C67.4569 185.149 67.2703 184.963 67.0783 184.76C66.8969 184.547 66.7103 184.339 66.5183 184.136C66.3369 183.933 66.1609 183.736 65.9903 183.544C65.8303 183.352 65.6809 183.181 65.5423 183.032C65.3076 182.765 65.1103 182.52 64.9503 182.296C64.8009 182.061 64.7103 181.901 64.6783 181.816H64.6623C64.6409 181.901 64.5609 182.051 64.4223 182.264C64.2943 182.477 64.1076 182.728 63.8623 183.016C63.5636 183.357 63.2276 183.736 62.8543 184.152C62.4809 184.557 62.0383 185.011 61.5263 185.512L60.7743 184.76C61.0089 184.536 61.2436 184.307 61.4783 184.072C61.7129 183.837 61.9316 183.608 62.1343 183.384C62.3476 183.16 62.5396 182.952 62.7103 182.76C62.8916 182.557 63.0409 182.376 63.1583 182.216C63.3503 181.971 63.5049 181.741 63.6223 181.528C63.7503 181.315 63.8463 181.091 63.9103 180.856C63.9743 180.621 64.0169 180.371 64.0383 180.104C64.0703 179.827 64.0863 179.512 64.0863 179.16V176.984H61.3983V175.992ZM69.5903 179.496V174.856H70.7103V188.456H69.5903V180.52H66.9983V179.496H69.5903ZM73.5583 189.176H72.4383V174.552H73.5583V189.176ZM79.7908 179.592C79.7588 179.709 79.6254 179.891 79.3908 180.136C79.1668 180.381 78.8841 180.653 78.5428 180.952C78.4041 181.08 78.2334 181.224 78.0308 181.384C77.8388 181.544 77.6308 181.709 77.4068 181.88C77.1934 182.051 76.9748 182.221 76.7508 182.392C76.5374 182.563 76.3401 182.712 76.1588 182.84L75.4708 182.04C75.9508 181.699 76.4308 181.341 76.9108 180.968C77.3908 180.584 77.8281 180.2 78.2228 179.816C78.4148 179.624 78.5748 179.443 78.7028 179.272C78.8308 179.101 78.9268 178.931 78.9908 178.76C79.0654 178.589 79.1134 178.413 79.1348 178.232C79.1668 178.04 79.1828 177.837 79.1828 177.624V176.408H75.8868V175.432H83.4708V176.408H80.3188V177.576C80.3188 177.811 80.3294 178.019 80.3508 178.2C80.3721 178.381 80.4201 178.557 80.4948 178.728C80.5801 178.899 80.6974 179.075 80.8468 179.256C81.0068 179.427 81.2148 179.624 81.4708 179.848C81.7268 180.061 82.0628 180.323 82.4788 180.632C82.8948 180.941 83.3321 181.251 83.7908 181.56L83.1348 182.344C82.8041 182.12 82.4681 181.88 82.1268 181.624C81.7854 181.368 81.4921 181.144 81.2468 180.952C80.8734 180.643 80.5481 180.365 80.2708 180.12C79.9934 179.875 79.8388 179.699 79.8068 179.592H79.7908ZM77.5988 183.88H86.7668V189.288H85.6468V184.872H77.5988V183.88ZM86.7668 178.2H89.0068V179.192H86.7668V183.016H85.6468V174.552H86.7668V178.2ZM98.1993 181.688H95.1753V184.968C96.0393 184.936 96.8286 184.899 97.5433 184.856C98.2686 184.813 98.9726 184.749 99.6553 184.664L99.7513 185.64C99.0899 185.704 98.4339 185.763 97.7833 185.816C97.1433 185.859 96.4446 185.896 95.6873 185.928C94.9406 185.96 94.1033 185.981 93.1753 185.992C92.2579 186.003 91.1859 186.008 89.9593 186.008V185.016C90.7486 185.016 91.4739 185.016 92.1353 185.016C92.8073 185.016 93.4419 185.005 94.0393 184.984V181.688H90.9673V175.816H98.1513V176.84H92.1033V180.664H98.1993V181.688ZM101.911 189.176H100.775V174.552H101.911V189.176ZM116.032 189.176H114.912V180.824H111.632V181.32C111.632 182.664 111.312 183.709 110.672 184.456C110.042 185.192 109.162 185.56 108.032 185.56C106.901 185.56 106.016 185.192 105.376 184.456C104.746 183.709 104.432 182.664 104.432 181.32V179.816C104.432 178.483 104.746 177.448 105.376 176.712C106.016 175.965 106.901 175.592 108.032 175.592C109.162 175.592 110.042 175.96 110.672 176.696C111.301 177.432 111.621 178.467 111.632 179.8H114.912V174.552H116.032V189.176ZM110.528 180.024C110.528 179.416 110.469 178.899 110.352 178.472C110.234 178.045 110.064 177.699 109.84 177.432C109.626 177.155 109.365 176.957 109.056 176.84C108.746 176.712 108.405 176.648 108.032 176.648C107.658 176.648 107.317 176.712 107.008 176.84C106.698 176.957 106.432 177.155 106.208 177.432C105.994 177.699 105.829 178.045 105.712 178.472C105.594 178.899 105.536 179.416 105.536 180.024V181.128C105.536 181.736 105.594 182.259 105.712 182.696C105.829 183.123 105.994 183.475 106.208 183.752C106.432 184.019 106.698 184.216 107.008 184.344C107.317 184.461 107.658 184.52 108.032 184.52C108.405 184.52 108.746 184.461 109.056 184.344C109.365 184.216 109.626 184.019 109.84 183.752C110.064 183.475 110.234 183.123 110.352 182.696C110.469 182.259 110.528 181.736 110.528 181.128V180.024ZM129.678 181.32C129.678 182.664 129.358 183.709 128.718 184.456C128.089 185.192 127.209 185.56 126.078 185.56C124.948 185.56 124.062 185.192 123.422 184.456C122.793 183.709 122.478 182.664 122.478 181.32V179.816C122.478 178.483 122.793 177.448 123.422 176.712C124.062 175.965 124.948 175.592 126.078 175.592C127.209 175.592 128.089 175.965 128.718 176.712C129.358 177.459 129.678 178.499 129.678 179.832V181.32ZM128.574 180.024C128.574 179.416 128.516 178.899 128.398 178.472C128.281 178.045 128.11 177.699 127.886 177.432C127.673 177.155 127.412 176.957 127.102 176.84C126.793 176.712 126.452 176.648 126.078 176.648C125.705 176.648 125.364 176.712 125.054 176.84C124.745 176.957 124.478 177.155 124.254 177.432C124.041 177.699 123.876 178.045 123.758 178.472C123.641 178.899 123.582 179.416 123.582 180.024V181.128C123.582 181.736 123.641 182.259 123.758 182.696C123.876 183.123 124.041 183.475 124.254 183.752C124.478 184.019 124.745 184.216 125.054 184.344C125.364 184.461 125.705 184.52 126.078 184.52C126.452 184.52 126.793 184.461 127.102 184.344C127.412 184.216 127.673 184.019 127.886 183.752C128.11 183.475 128.281 183.123 128.398 182.696C128.516 182.259 128.574 181.736 128.574 181.128V180.024ZM133.326 180.04H135.758V181.048H133.326V189.176H132.19V174.552H133.326V180.04ZM145.623 179.976H147.671V174.552H148.791V189.176H147.671V180.984H145.623V188.456H144.503V174.856H145.623V179.976ZM138.055 184.376H139.175C139.516 184.376 139.847 184.376 140.167 184.376C140.497 184.365 140.828 184.349 141.159 184.328C141.5 184.307 141.847 184.28 142.199 184.248C142.561 184.216 142.945 184.168 143.351 184.104L143.479 185.096C142.647 185.224 141.857 185.304 141.111 185.336C140.375 185.368 139.655 185.384 138.951 185.384H136.951V179.992H141.175V176.808H136.951V175.832H142.279V180.968H138.055V184.376ZM154.143 185.496C153.077 185.496 152.287 185.133 151.775 184.408C151.274 183.672 151.023 182.616 151.023 181.24V179.992C151.023 178.616 151.274 177.565 151.775 176.84C152.287 176.104 153.077 175.736 154.143 175.736C155.21 175.736 155.994 176.104 156.495 176.84C157.007 177.565 157.263 178.616 157.263 179.992V180.072H159.231V174.856H160.351V188.456H159.231V181.08H157.263V181.24C157.263 182.616 157.007 183.672 156.495 184.408C155.994 185.133 155.21 185.496 154.143 185.496ZM154.143 176.776C153.429 176.776 152.911 177.059 152.591 177.624C152.271 178.189 152.111 179.021 152.111 180.12V181.112C152.111 182.211 152.271 183.043 152.591 183.608C152.911 184.173 153.429 184.456 154.143 184.456C154.858 184.456 155.375 184.173 155.695 183.608C156.015 183.043 156.175 182.211 156.175 181.112V180.12C156.175 179.021 156.015 178.189 155.695 177.624C155.375 177.059 154.858 176.776 154.143 176.776ZM163.167 189.176H162.047V174.552H163.167V189.176ZM177.016 189.176H175.896V180.216H172.424V179.192H175.896V174.552H177.016V189.176ZM167.544 182.104C167.8 181.816 168.002 181.555 168.152 181.32C168.301 181.085 168.418 180.856 168.504 180.632C168.589 180.397 168.642 180.157 168.664 179.912C168.696 179.667 168.712 179.384 168.712 179.064V175.624H169.88V178.984C169.88 179.293 169.89 179.565 169.912 179.8C169.933 180.024 169.976 180.243 170.04 180.456C170.104 180.659 170.2 180.861 170.328 181.064C170.456 181.267 170.626 181.491 170.84 181.736C171.16 182.109 171.549 182.531 172.008 183C172.477 183.469 173.016 183.976 173.624 184.52L172.888 185.288C172.376 184.808 171.901 184.355 171.464 183.928C171.037 183.491 170.664 183.101 170.344 182.76C170.098 182.504 169.874 182.259 169.672 182.024C169.48 181.789 169.362 181.619 169.32 181.512H169.304C169.293 181.565 169.25 181.651 169.176 181.768C169.101 181.875 169.005 181.997 168.888 182.136C168.781 182.275 168.664 182.424 168.536 182.584C168.408 182.733 168.285 182.872 168.168 183C168.029 183.149 167.858 183.325 167.656 183.528C167.464 183.731 167.256 183.944 167.032 184.168C166.808 184.392 166.573 184.621 166.328 184.856C166.082 185.091 165.842 185.309 165.608 185.512L164.856 184.728C165.389 184.259 165.874 183.811 166.312 183.384C166.76 182.957 167.17 182.531 167.544 182.104ZM195.062 182.68V186.424H187.222V188.264H195.446V189.224H186.118V185.48H193.958V183.656H186.038V182.68H195.062ZM187.43 178.792C187.345 179.059 186.95 179.496 186.246 180.104C185.969 180.349 185.617 180.648 185.19 181C184.764 181.341 184.278 181.709 183.734 182.104L183.046 181.288C183.558 180.936 184.033 180.589 184.47 180.248C184.908 179.896 185.292 179.571 185.622 179.272C185.857 179.059 186.049 178.861 186.198 178.68C186.348 178.499 186.465 178.312 186.55 178.12C186.646 177.917 186.71 177.704 186.742 177.48C186.785 177.256 186.806 177 186.806 176.712V174.92H187.958V176.664C187.958 176.952 187.969 177.203 187.99 177.416C188.022 177.619 188.076 177.805 188.15 177.976C188.236 178.147 188.353 178.317 188.502 178.488C188.652 178.648 188.854 178.835 189.11 179.048C189.409 179.293 189.766 179.576 190.182 179.896C190.598 180.205 191.014 180.499 191.43 180.776L190.79 181.592C190.417 181.325 190.065 181.069 189.734 180.824C189.404 180.568 189.121 180.349 188.886 180.168C188.513 179.869 188.193 179.603 187.926 179.368C187.66 179.123 187.5 178.931 187.446 178.792H187.43ZM193.942 177.368V174.552H195.062V181.816H193.942V178.36H190.662V177.368H193.942ZM205.087 183.512C205.684 183.512 206.249 183.576 206.783 183.704C207.327 183.821 207.801 183.997 208.207 184.232C208.612 184.467 208.932 184.755 209.167 185.096C209.401 185.427 209.519 185.8 209.519 186.216V186.84C209.519 187.256 209.401 187.629 209.167 187.96C208.932 188.301 208.612 188.589 208.207 188.824C207.801 189.059 207.327 189.24 206.783 189.368C206.249 189.496 205.684 189.56 205.087 189.56C204.489 189.56 203.919 189.496 203.375 189.368C202.841 189.24 202.372 189.059 201.967 188.824C201.561 188.589 201.241 188.301 201.007 187.96C200.772 187.629 200.655 187.256 200.655 186.84V186.216C200.655 185.789 200.772 185.411 201.007 185.08C201.241 184.739 201.561 184.451 201.967 184.216C202.372 183.981 202.841 183.805 203.375 183.688C203.919 183.571 204.489 183.512 205.087 183.512ZM205.087 188.6C205.513 188.6 205.924 188.557 206.319 188.472C206.724 188.397 207.081 188.28 207.391 188.12C207.711 187.971 207.961 187.784 208.143 187.56C208.335 187.347 208.431 187.096 208.431 186.808V186.264C208.431 185.976 208.335 185.725 208.143 185.512C207.961 185.288 207.711 185.101 207.391 184.952C207.081 184.792 206.724 184.675 206.319 184.6C205.924 184.515 205.513 184.472 205.087 184.472C204.66 184.472 204.244 184.515 203.839 184.6C203.444 184.675 203.087 184.792 202.767 184.952C202.457 185.101 202.207 185.288 202.015 185.512C201.833 185.725 201.743 185.976 201.743 186.264V186.808C201.743 187.096 201.833 187.347 202.015 187.56C202.207 187.784 202.457 187.971 202.767 188.12C203.087 188.28 203.444 188.397 203.839 188.472C204.244 188.557 204.66 188.6 205.087 188.6ZM201.983 179.736C201.951 179.853 201.817 180.035 201.583 180.28C201.359 180.525 201.076 180.797 200.735 181.096C200.596 181.224 200.425 181.368 200.223 181.528C200.031 181.688 199.823 181.853 199.599 182.024C199.385 182.195 199.167 182.365 198.943 182.536C198.729 182.707 198.532 182.856 198.351 182.984L197.663 182.184C198.143 181.843 198.623 181.485 199.103 181.112C199.583 180.728 200.02 180.344 200.415 179.96C200.607 179.768 200.767 179.587 200.895 179.416C201.023 179.245 201.119 179.075 201.183 178.904C201.257 178.733 201.305 178.557 201.327 178.376C201.359 178.184 201.375 177.981 201.375 177.768V176.456H198.079V175.48H205.647V176.456H202.511V177.72C202.511 177.955 202.521 178.163 202.543 178.344C202.564 178.525 202.612 178.701 202.687 178.872C202.772 179.043 202.889 179.219 203.039 179.4C203.199 179.571 203.407 179.768 203.663 179.992C203.919 180.205 204.255 180.467 204.671 180.776C205.087 181.085 205.524 181.395 205.983 181.704L205.327 182.504C205.007 182.28 204.671 182.04 204.319 181.784C203.977 181.517 203.684 181.288 203.439 181.096C203.065 180.787 202.74 180.509 202.463 180.264C202.185 180.019 202.031 179.843 201.999 179.736H201.983ZM209.439 183.176H208.319V179.288H205.263V178.296H208.319V174.552H209.439V183.176ZM219.319 181.224C219.319 181.555 219.239 181.875 219.079 182.184C218.93 182.493 218.711 182.771 218.423 183.016C218.135 183.251 217.783 183.443 217.367 183.592C216.951 183.731 216.482 183.8 215.959 183.8C215.437 183.8 214.967 183.731 214.551 183.592C214.135 183.443 213.783 183.251 213.495 183.016C213.207 182.771 212.983 182.493 212.823 182.184C212.674 181.875 212.599 181.555 212.599 181.224V180.616C212.599 180.285 212.674 179.965 212.823 179.656C212.983 179.347 213.207 179.075 213.495 178.84C213.783 178.595 214.135 178.403 214.551 178.264C214.967 178.115 215.437 178.04 215.959 178.04C216.482 178.04 216.951 178.115 217.367 178.264C217.783 178.403 218.135 178.595 218.423 178.84C218.711 179.075 218.93 179.347 219.079 179.656C219.239 179.965 219.319 180.285 219.319 180.616V181.224ZM215.959 182.84C216.311 182.84 216.626 182.792 216.903 182.696C217.191 182.589 217.431 182.456 217.623 182.296C217.826 182.136 217.981 181.96 218.087 181.768C218.194 181.565 218.247 181.368 218.247 181.176V180.664C218.247 180.472 218.194 180.28 218.087 180.088C217.981 179.885 217.826 179.704 217.623 179.544C217.431 179.384 217.191 179.256 216.903 179.16C216.626 179.053 216.311 179 215.959 179C215.607 179 215.287 179.053 214.999 179.16C214.722 179.256 214.482 179.384 214.279 179.544C214.087 179.704 213.938 179.885 213.831 180.088C213.725 180.28 213.671 180.472 213.671 180.664V181.176C213.671 181.368 213.725 181.565 213.831 181.768C213.938 181.96 214.087 182.136 214.279 182.296C214.482 182.456 214.722 182.589 214.999 182.696C215.287 182.792 215.607 182.84 215.959 182.84ZM223.095 179.016H225.335V180.008H223.095V185.192H221.975V174.552H223.095V179.016ZM215.511 188.008H223.543V189H214.375V184.952H215.511V188.008ZM216.519 176.28H220.183V177.256H211.767V176.28H215.399V174.408H216.519V176.28ZM47.7878 208.544C47.7238 208.704 47.5371 208.923 47.2278 209.2C46.9291 209.467 46.4918 209.792 45.9158 210.176C45.4358 210.496 44.8865 210.843 44.2678 211.216C43.6598 211.579 43.0678 211.915 42.4918 212.224L41.8838 211.328C42.5878 210.965 43.2331 210.613 43.8198 210.272C44.4065 209.92 44.8865 209.616 45.2598 209.36C45.6545 209.093 45.9798 208.853 46.2358 208.64C46.4918 208.427 46.6891 208.203 46.8278 207.968C46.9771 207.723 47.0785 207.456 47.1318 207.168C47.1851 206.869 47.2118 206.501 47.2118 206.064V204.512H48.3798V206.064C48.3798 206.501 48.4065 206.869 48.4598 207.168C48.5131 207.456 48.6091 207.723 48.7478 207.968C48.8971 208.203 49.0945 208.427 49.3398 208.64C49.5958 208.853 49.9211 209.093 50.3158 209.36C50.6891 209.616 51.1638 209.915 51.7398 210.256C52.3265 210.597 52.9665 210.949 53.6598 211.312L53.0678 212.192C52.4918 211.883 51.8998 211.547 51.2918 211.184C50.6945 210.821 50.1558 210.48 49.6758 210.16C49.0998 209.776 48.6625 209.451 48.3638 209.184C48.0651 208.917 47.8785 208.704 47.8038 208.544H47.7878ZM47.1958 215.136V211.76H48.3638V215.136H54.5078V216.112H41.0678V215.136H47.1958ZM68.8203 210.4V211.36H62.6603V212.992C63.2043 213.024 63.7163 213.104 64.1963 213.232C64.6763 213.349 65.0976 213.515 65.4603 213.728C65.823 213.941 66.111 214.203 66.3243 214.512C66.5376 214.811 66.6443 215.152 66.6443 215.536V215.984C66.6443 216.4 66.5163 216.768 66.2603 217.088C66.015 217.408 65.6843 217.675 65.2683 217.888C64.8523 218.112 64.367 218.277 63.8123 218.384C63.2683 218.501 62.6976 218.56 62.1003 218.56C61.503 218.56 60.927 218.501 60.3723 218.384C59.8283 218.277 59.3483 218.112 58.9323 217.888C58.5163 217.675 58.1803 217.408 57.9243 217.088C57.679 216.768 57.5563 216.4 57.5563 215.984V215.52C57.5563 215.136 57.663 214.795 57.8763 214.496C58.0896 214.187 58.3723 213.931 58.7243 213.728C59.087 213.515 59.5083 213.349 59.9883 213.232C60.479 213.104 60.9963 213.024 61.5403 212.992V211.36H55.3803V210.4H68.8203ZM62.0843 207.104C61.999 207.285 61.7856 207.472 61.4443 207.664C61.103 207.856 60.6816 208.059 60.1803 208.272C59.7216 208.464 59.247 208.651 58.7563 208.832C58.2656 209.013 57.663 209.227 56.9483 209.472L56.5003 208.592C57.951 208.112 59.0656 207.701 59.8443 207.36C60.175 207.221 60.447 207.088 60.6603 206.96C60.8736 206.821 61.0443 206.683 61.1723 206.544C61.3003 206.395 61.391 206.24 61.4443 206.08C61.4976 205.909 61.5243 205.717 61.5243 205.504V205.104H57.1403V204.144H67.0603V205.104H62.6603V205.504C62.6603 205.717 62.6816 205.909 62.7243 206.08C62.7776 206.24 62.8683 206.395 62.9963 206.544C63.1243 206.683 63.295 206.821 63.5083 206.96C63.7216 207.088 63.9936 207.221 64.3243 207.36C64.719 207.531 65.2043 207.723 65.7803 207.936C66.367 208.149 66.9963 208.363 67.6683 208.576L67.2523 209.456C66.591 209.243 65.9883 209.035 65.4443 208.832C64.9003 208.629 64.4203 208.437 64.0043 208.256C63.503 208.053 63.0816 207.856 62.7403 207.664C62.399 207.461 62.1856 207.275 62.1003 207.104H62.0843ZM62.1003 217.6C62.527 217.6 62.9483 217.563 63.3643 217.488C63.7803 217.424 64.1483 217.323 64.4683 217.184C64.799 217.045 65.0603 216.869 65.2523 216.656C65.455 216.453 65.5563 216.208 65.5563 215.92V215.6C65.5563 215.312 65.455 215.067 65.2523 214.864C65.0603 214.651 64.799 214.475 64.4683 214.336C64.1483 214.197 63.7803 214.096 63.3643 214.032C62.9483 213.957 62.527 213.92 62.1003 213.92C61.6736 213.92 61.2523 213.957 60.8363 214.032C60.4203 214.096 60.047 214.197 59.7163 214.336C59.3963 214.475 59.135 214.651 58.9323 214.864C58.7403 215.067 58.6443 215.307 58.6443 215.584V215.92C58.6443 216.208 58.7403 216.453 58.9323 216.656C59.135 216.869 59.3963 217.045 59.7163 217.184C60.047 217.323 60.4203 217.424 60.8363 217.488C61.2523 217.563 61.6736 217.6 62.1003 217.6ZM77.4208 210.224C77.4208 210.555 77.3408 210.875 77.1808 211.184C77.0315 211.493 76.8128 211.771 76.5248 212.016C76.2368 212.251 75.8848 212.443 75.4688 212.592C75.0528 212.731 74.5835 212.8 74.0608 212.8C73.5381 212.8 73.0688 212.731 72.6528 212.592C72.2368 212.443 71.8848 212.251 71.5968 212.016C71.3088 211.771 71.0848 211.493 70.9248 211.184C70.7755 210.875 70.7008 210.555 70.7008 210.224V209.616C70.7008 209.285 70.7755 208.965 70.9248 208.656C71.0848 208.347 71.3088 208.075 71.5968 207.84C71.8848 207.595 72.2368 207.403 72.6528 207.264C73.0688 207.115 73.5381 207.04 74.0608 207.04C74.5835 207.04 75.0528 207.115 75.4688 207.264C75.8848 207.403 76.2368 207.595 76.5248 207.84C76.8128 208.075 77.0315 208.347 77.1808 208.656C77.3408 208.965 77.4208 209.285 77.4208 209.616V210.224ZM74.0608 211.84C74.4128 211.84 74.7275 211.792 75.0048 211.696C75.2928 211.589 75.5328 211.456 75.7248 211.296C75.9275 211.136 76.0821 210.96 76.1888 210.768C76.2955 210.565 76.3488 210.368 76.3488 210.176V209.664C76.3488 209.472 76.2955 209.28 76.1888 209.088C76.0821 208.885 75.9275 208.704 75.7248 208.544C75.5328 208.384 75.2928 208.256 75.0048 208.16C74.7275 208.053 74.4128 208 74.0608 208C73.7088 208 73.3888 208.053 73.1008 208.16C72.8235 208.256 72.5835 208.384 72.3808 208.544C72.1888 208.704 72.0395 208.885 71.9328 209.088C71.8261 209.28 71.7728 209.472 71.7728 209.664V210.176C71.7728 210.368 71.8261 210.565 71.9328 210.768C72.0395 210.96 72.1888 211.136 72.3808 211.296C72.5835 211.456 72.8235 211.589 73.1008 211.696C73.3888 211.792 73.7088 211.84 74.0608 211.84ZM81.1968 208.016H83.4368V209.008H81.1968V214.192H80.0768V203.552H81.1968V208.016ZM73.6128 217.008H81.6448V218H72.4768V213.952H73.6128V217.008ZM74.6208 205.28H78.2848V206.256H69.8688V205.28H73.5008V203.408H74.6208V205.28ZM99.1953 209.536H89.7553V203.968H90.8593V205.792H98.0913V203.968H99.1953V209.536ZM101.195 211.232V212.192H95.1953V215.136H94.0753V212.192H87.7553V211.232H101.195ZM90.8753 217.008H99.5153V218H89.7393V213.84H90.8753V217.008ZM90.8593 208.56H98.0913V206.736H90.8593V208.56ZM114.388 218.176H113.252V203.552H114.388V218.176ZM112.228 214.592C111.566 214.656 110.91 214.715 110.26 214.768C109.62 214.811 108.921 214.848 108.164 214.88C107.417 214.912 106.58 214.933 105.652 214.944C104.734 214.955 103.662 214.96 102.436 214.96V213.968C103.598 213.968 104.638 213.963 105.556 213.952C106.484 213.941 107.332 213.925 108.1 213.904C108.868 213.872 109.577 213.835 110.228 213.792C110.878 213.739 111.513 213.68 112.132 213.616L112.228 214.592ZM107.012 211.472C106.489 211.472 105.998 211.392 105.54 211.232C105.081 211.072 104.676 210.853 104.324 210.576C103.982 210.299 103.71 209.973 103.508 209.6C103.305 209.227 103.204 208.821 103.204 208.384V207.616C103.204 207.179 103.305 206.773 103.508 206.4C103.71 206.027 103.982 205.701 104.324 205.424C104.676 205.147 105.081 204.928 105.54 204.768C105.998 204.608 106.489 204.528 107.012 204.528C107.534 204.528 108.025 204.608 108.484 204.768C108.942 204.928 109.342 205.147 109.684 205.424C110.036 205.701 110.313 206.032 110.516 206.416C110.718 206.789 110.82 207.189 110.82 207.616V208.384C110.82 208.821 110.718 209.227 110.516 209.6C110.313 209.973 110.036 210.299 109.684 210.576C109.342 210.853 108.942 211.072 108.484 211.232C108.025 211.392 107.534 211.472 107.012 211.472ZM107.012 205.52C106.66 205.52 106.318 205.579 105.988 205.696C105.668 205.803 105.38 205.957 105.124 206.16C104.868 206.352 104.665 206.581 104.516 206.848C104.366 207.104 104.292 207.381 104.292 207.68V208.32C104.292 208.619 104.366 208.901 104.516 209.168C104.665 209.424 104.868 209.653 105.124 209.856C105.38 210.048 105.668 210.203 105.988 210.32C106.318 210.427 106.66 210.48 107.012 210.48C107.364 210.48 107.7 210.427 108.02 210.32C108.35 210.203 108.644 210.048 108.9 209.856C109.156 209.653 109.358 209.424 109.508 209.168C109.657 208.901 109.732 208.619 109.732 208.32V207.68C109.732 207.381 109.657 207.104 109.508 206.848C109.358 206.581 109.156 206.352 108.9 206.16C108.644 205.957 108.35 205.803 108.02 205.696C107.7 205.579 107.364 205.52 107.012 205.52ZM128.738 209.024C127.672 208.491 127.048 208.043 126.866 207.68H126.85C126.68 208.043 126.056 208.496 124.978 209.04C124.541 209.253 124.045 209.493 123.49 209.76C122.936 210.016 122.322 210.272 121.65 210.528L121.154 209.632C121.752 209.408 122.349 209.163 122.946 208.896C123.544 208.629 124.098 208.363 124.61 208.096C124.994 207.893 125.298 207.701 125.522 207.52C125.746 207.328 125.912 207.136 126.018 206.944C126.136 206.741 126.21 206.528 126.242 206.304C126.274 206.08 126.29 205.835 126.29 205.568V205.424H121.858V204.464H131.842V205.424H127.426V205.568C127.426 205.835 127.437 206.08 127.458 206.304C127.49 206.528 127.56 206.741 127.666 206.944C127.784 207.136 127.954 207.328 128.178 207.52C128.402 207.701 128.706 207.893 129.09 208.096C129.602 208.363 130.152 208.629 130.738 208.896C131.325 209.152 131.917 209.392 132.514 209.616L132.034 210.496C131.426 210.261 130.84 210.016 130.274 209.76C129.72 209.504 129.208 209.259 128.738 209.024ZM133.57 211.968V212.944H127.426V218.176H126.29V212.944H120.13V211.968H133.57ZM141.163 208.544C141.099 208.704 140.912 208.923 140.603 209.2C140.304 209.467 139.867 209.792 139.291 210.176C138.811 210.496 138.261 210.843 137.643 211.216C137.035 211.579 136.443 211.915 135.867 212.224L135.259 211.328C135.963 210.965 136.608 210.613 137.195 210.272C137.781 209.92 138.261 209.616 138.635 209.36C139.029 209.093 139.355 208.853 139.611 208.64C139.867 208.427 140.064 208.203 140.203 207.968C140.352 207.723 140.453 207.456 140.507 207.168C140.56 206.869 140.587 206.501 140.587 206.064V204.512H141.755V206.064C141.755 206.501 141.781 206.869 141.835 207.168C141.888 207.456 141.984 207.723 142.123 207.968C142.272 208.203 142.469 208.427 142.715 208.64C142.971 208.853 143.296 209.093 143.691 209.36C144.064 209.616 144.539 209.915 145.115 210.256C145.701 210.597 146.341 210.949 147.035 211.312L146.443 212.192C145.867 211.883 145.275 211.547 144.667 211.184C144.069 210.821 143.531 210.48 143.051 210.16C142.475 209.776 142.037 209.451 141.739 209.184C141.44 208.917 141.253 208.704 141.179 208.544H141.163ZM140.571 215.136V211.76H141.739V215.136H147.883V216.112H134.443V215.136H140.571ZM160.163 204.704V209.04H151.843V211.408H160.499V212.384H156.035V215.136H162.195V216.112H148.755V215.136H154.915V212.384H150.739V208.08H159.059V205.68H150.691V204.704H160.163ZM171.522 209.104C171.49 209.221 171.356 209.403 171.122 209.648C170.898 209.893 170.615 210.165 170.274 210.464C170.135 210.592 169.964 210.736 169.762 210.896C169.57 211.056 169.362 211.221 169.138 211.392C168.924 211.563 168.706 211.733 168.482 211.904C168.268 212.075 168.071 212.224 167.89 212.352L167.202 211.552C167.682 211.211 168.162 210.853 168.642 210.48C169.122 210.096 169.559 209.712 169.954 209.328C170.146 209.136 170.306 208.955 170.434 208.784C170.562 208.613 170.658 208.443 170.722 208.272C170.796 208.101 170.844 207.925 170.866 207.744C170.898 207.552 170.914 207.349 170.914 207.136V205.488H167.618V204.512H175.186V205.488H172.05V207.088C172.05 207.323 172.06 207.531 172.082 207.712C172.103 207.893 172.151 208.069 172.226 208.24C172.311 208.411 172.428 208.587 172.578 208.768C172.738 208.939 172.946 209.136 173.202 209.36C173.458 209.573 173.794 209.835 174.21 210.144C174.626 210.453 175.063 210.763 175.522 211.072L174.866 211.856C174.535 211.632 174.199 211.392 173.858 211.136C173.516 210.88 173.223 210.656 172.978 210.464C172.604 210.155 172.279 209.877 172.002 209.632C171.724 209.387 171.57 209.211 171.538 209.104H171.522ZM177.858 207.44V203.552H178.978V214H177.858V208.432H174.802V207.44H177.858ZM171.154 217.008H179.346V218H170.018V213.152H171.154V217.008ZM192.634 211.616V215.392H184.922V217.264H193.018V218.224H183.818V214.448H191.53V212.592H183.738V211.616H192.634ZM181.914 204.192H188.618V205.184H183.034V209.12C183.834 209.12 184.538 209.12 185.146 209.12C185.754 209.109 186.314 209.093 186.826 209.072C187.349 209.04 187.85 209.003 188.33 208.96C188.821 208.917 189.354 208.864 189.93 208.8L190.058 209.776C189.664 209.829 189.29 209.872 188.938 209.904C188.586 209.936 188.234 209.968 187.882 210C187.53 210.021 187.157 210.043 186.762 210.064C186.378 210.075 185.952 210.085 185.482 210.096C185.013 210.096 184.485 210.101 183.898 210.112C183.322 210.112 182.661 210.112 181.914 210.112V204.192ZM192.634 206.512H194.874V207.504H192.634V210.752H191.514V203.552H192.634V206.512ZM207.555 212.672V218.16H198.243V212.672H199.347V214.4H206.451V212.672H207.555ZM205.411 211.2C204.931 211.264 204.392 211.317 203.795 211.36C203.208 211.403 202.531 211.44 201.763 211.472C201.005 211.504 200.141 211.531 199.171 211.552C198.2 211.563 197.085 211.568 195.827 211.568V210.592C196.605 210.592 197.32 210.592 197.971 210.592C198.621 210.592 199.224 210.581 199.779 210.56V208.768H196.883V204.176H203.875V205.168H198.003V207.776H203.923V208.768H200.899V210.544C201.379 210.533 201.821 210.517 202.227 210.496C202.632 210.475 203.011 210.453 203.363 210.432C203.715 210.4 204.051 210.368 204.371 210.336C204.691 210.304 205.005 210.272 205.315 210.24L205.411 211.2ZM206.451 217.152V215.392H199.347V217.152H206.451ZM207.555 211.808H206.435V203.552H207.555V211.808ZM221.851 218.176H220.715V203.552H221.851V218.176ZM212.155 213.136H214.251C215.019 213.136 215.803 213.109 216.603 213.056C217.414 212.992 218.257 212.885 219.131 212.736L219.275 213.744C218.411 213.893 217.531 214 216.635 214.064C215.739 214.128 214.907 214.16 214.139 214.16H211.019V204.752H212.155V213.136ZM224.884 204.88H231.54V205.904H226.02V213.248H227.908C228.729 213.248 229.534 213.221 230.324 213.168C231.124 213.104 231.977 212.997 232.884 212.848L233.028 213.856C232.174 214.005 231.284 214.112 230.356 214.176C229.438 214.24 228.526 214.272 227.62 214.272H224.884V204.88ZM235.412 208.976H237.844V209.984H235.412V218.176H234.276V203.552H235.412V208.976ZM238.972 215.28H240.588V216.88H238.972V215.28Z" fill="#332C28"/>
<g clip-path="url(#clip0_270_2392)">
<path d="M30 146C28.6155 146 27.2622 146.411 26.111 147.18C24.9599 147.949 24.0627 149.042 23.5328 150.321C23.003 151.6 22.8644 153.008 23.1345 154.366C23.4046 155.723 24.0713 156.971 25.0502 157.95C26.0292 158.929 27.2765 159.595 28.6344 159.865C29.9922 160.136 31.3997 159.997 32.6788 159.467C33.9579 158.937 35.0511 158.04 35.8203 156.889C36.5895 155.738 37 154.384 37 153C37 151.143 36.2625 149.363 34.9498 148.05C33.637 146.737 31.8565 146 30 146V146ZM33.83 153L32.69 154.11L32.96 155.67C32.9939 155.867 32.9721 156.069 32.8972 156.254C32.8222 156.439 32.6971 156.599 32.5359 156.716C32.3747 156.834 32.1838 156.904 31.9849 156.919C31.7859 156.934 31.5868 156.892 31.41 156.8L30 156.06L28.59 156.8C28.4132 156.892 28.2141 156.934 28.0151 156.919C27.8162 156.904 27.6253 156.834 27.4641 156.716C27.3029 156.599 27.1778 156.439 27.1028 156.254C27.0279 156.069 27.0061 155.867 27.04 155.67L27.31 154.11L26.17 153C26.0256 152.861 25.9232 152.684 25.8744 152.49C25.8255 152.296 25.8322 152.092 25.8937 151.901C25.9552 151.71 26.069 151.54 26.2221 151.411C26.3753 151.282 26.5617 151.198 26.76 151.17L28.33 150.94L29.04 149.51C29.1283 149.331 29.265 149.18 29.4346 149.074C29.6043 148.969 29.8002 148.913 30 148.913C30.1998 148.913 30.3957 148.969 30.5654 149.074C30.735 149.18 30.8718 149.331 30.96 149.51L31.66 150.94L33.24 151.17C33.4469 151.192 33.6429 151.274 33.8039 151.406C33.965 151.538 34.0841 151.714 34.1467 151.912C34.2093 152.11 34.2127 152.323 34.1565 152.523C34.1002 152.724 33.9868 152.903 33.83 153.04V153Z" fill="#332C28"/>
</g>
<defs>
<clipPath id="clip0_270_2392">
<rect width="14" height="14" fill="white" transform="translate(23 146)"/>
</clipPath>
</defs>
</svg>
