<svg width="270" height="246" viewBox="0 0 270 246" fill="none" xmlns="http://www.w3.org/2000/svg">
<path d="M155.833 40.7917L132.062 64.5833L123.229 55.75L126.167 52.8125L132.062 58.7083L152.896 37.875L155.833 40.7917ZM151.229 51.2917C151.5 52.4792 151.667 53.7292 151.667 55C151.667 64.2083 144.208 71.6667 135 71.6667C125.792 71.6667 118.333 64.2083 118.333 55C118.333 45.7917 125.792 38.3333 135 38.3333C138.292 38.3333 141.333 39.2917 143.917 40.9375L146.917 37.9375C143.542 35.5625 139.437 34.1667 135 34.1667C123.5 34.1667 114.167 43.5 114.167 55C114.167 66.5 123.5 75.8333 135 75.8333C146.5 75.8333 155.833 66.5 155.833 55C155.833 52.5208 155.375 50.1458 154.583 47.9375L151.229 51.2917Z" fill="#98A8D3"/>
<path d="M47.9472 122.472H38.3472V117.064H47.9472V122.472ZM42.5392 128.056V125.208H36.3792V123.864H49.9152V125.208H44.1392V128.056H42.5392ZM39.9152 129.704H48.2512V131.08H38.3312V126.728H39.9152V129.704ZM46.3792 118.392H39.9152V121.144H46.3792V118.392ZM62.3397 124.76V131.24H53.3477V124.76H54.9157V126.632H60.7717V124.76H62.3397ZM59.5877 123.16C59.0224 123.235 58.4944 123.293 58.0037 123.336C57.513 123.379 56.969 123.416 56.3717 123.448C55.7744 123.469 55.081 123.485 54.2917 123.496C53.5024 123.507 52.5317 123.512 51.3797 123.512V117.352H58.2117V118.712H52.9317V122.152C53.753 122.152 54.4464 122.147 55.0117 122.136C55.5877 122.125 56.1104 122.109 56.5797 122.088C57.049 122.067 57.5024 122.04 57.9397 122.008C58.377 121.965 58.873 121.912 59.4277 121.848L59.5877 123.16ZM64.4357 120.92H62.3397V124.04H60.7717V116.488H62.3397V119.544H64.4357V120.92ZM60.7717 129.896V127.96H54.9157V129.896H60.7717ZM69.3722 127.944C68.8069 127.944 68.3055 127.859 67.8682 127.688C67.4309 127.507 67.0575 127.272 66.7482 126.984C66.4389 126.696 66.2042 126.365 66.0442 125.992C65.8842 125.619 65.8042 125.24 65.8042 124.856V123.928C65.8042 123.544 65.8842 123.165 66.0442 122.792C66.2042 122.419 66.4389 122.088 66.7482 121.8C67.0575 121.501 67.4309 121.267 67.8682 121.096C68.3055 120.915 68.8069 120.824 69.3722 120.824C69.9269 120.824 70.4229 120.915 70.8602 121.096C71.3082 121.267 71.6869 121.501 71.9962 121.8C72.3055 122.088 72.5402 122.419 72.7002 122.792C72.8602 123.165 72.9402 123.544 72.9402 123.928V124.856C72.9402 125.24 72.8602 125.619 72.7002 125.992C72.5402 126.365 72.3055 126.696 71.9962 126.984C71.6869 127.272 71.3082 127.507 70.8602 127.688C70.4229 127.859 69.9269 127.944 69.3722 127.944ZM78.8282 123.72H76.5562V131.24H74.9722V116.488H76.5562V122.344H78.8282V123.72ZM69.3722 122.152C68.7322 122.152 68.2255 122.333 67.8522 122.696C67.4789 123.048 67.2922 123.517 67.2922 124.104V124.68C67.2922 125.267 67.4789 125.736 67.8522 126.088C68.2255 126.44 68.7322 126.616 69.3722 126.616C70.0122 126.616 70.5189 126.44 70.8922 126.088C71.2655 125.736 71.4522 125.267 71.4522 124.68V124.104C71.4522 123.517 71.2655 123.048 70.8922 122.696C70.5189 122.333 70.0122 122.152 69.3722 122.152ZM68.5882 118.664V116.584H70.1722V118.664H73.5962V120.008H65.0682V118.664H68.5882ZM89.9567 131.24V116.488H91.5407V131.24H89.9567ZM83.9407 123.864C83.866 124.045 83.754 124.227 83.6047 124.408C83.466 124.589 83.2687 124.819 83.0127 125.096C82.682 125.459 82.3034 125.853 81.8767 126.28C81.45 126.696 80.9647 127.155 80.4207 127.656L79.3807 126.584C80.3514 125.72 81.194 124.893 81.9087 124.104C82.154 123.827 82.3567 123.571 82.5167 123.336C82.6767 123.101 82.7994 122.872 82.8847 122.648C82.9807 122.413 83.0447 122.179 83.0767 121.944C83.1194 121.699 83.1407 121.432 83.1407 121.144V117.544H84.7407V121.144C84.7407 121.464 84.762 121.752 84.8047 122.008C84.8474 122.253 84.9167 122.493 85.0127 122.728C85.1087 122.952 85.2367 123.181 85.3967 123.416C85.5674 123.64 85.7754 123.885 86.0207 124.152C86.362 124.525 86.7194 124.893 87.0927 125.256C87.466 125.608 87.8927 125.997 88.3727 126.424L87.3487 127.512C86.794 127 86.3247 126.557 85.9407 126.184C85.5674 125.8 85.226 125.443 84.9167 125.112C84.6927 124.867 84.49 124.637 84.3087 124.424C84.138 124.211 84.0207 124.024 83.9567 123.864H83.9407ZM97.0372 117.752V123.288H105.437V124.632H95.4532V117.752H97.0372ZM107.165 127.928V129.272H93.6292V127.928H107.165ZM110.326 123.176V126.28H111.67C112.203 126.28 112.688 126.275 113.126 126.264C113.563 126.253 113.974 126.237 114.358 126.216C114.752 126.184 115.136 126.152 115.51 126.12C115.894 126.077 116.294 126.024 116.71 125.96L116.886 127.304C116.512 127.357 116.134 127.405 115.75 127.448C115.376 127.491 114.966 127.528 114.518 127.56C114.08 127.581 113.595 127.603 113.062 127.624C112.539 127.635 111.947 127.64 111.286 127.64H108.758V121.848H113.782V119.032H108.71V117.672H115.35V123.176H110.326ZM121.798 123.256H119.526V131.24H117.942V116.488H119.526V121.88H121.798V123.256ZM131.972 131.24V126.168H126.004V124.824H139.54V126.168H133.572V131.24H131.972ZM134.548 122.024C134.015 121.757 133.61 121.523 133.332 121.32C133.066 121.117 132.879 120.925 132.772 120.744H132.756C132.66 120.925 132.474 121.123 132.196 121.336C131.919 121.539 131.514 121.773 130.98 122.04C130.543 122.253 130.031 122.493 129.444 122.76C128.858 123.027 128.234 123.288 127.572 123.544L126.948 122.248C127.546 122.024 128.154 121.779 128.772 121.512C129.391 121.235 129.956 120.957 130.468 120.68C130.735 120.531 130.964 120.381 131.156 120.232C131.348 120.083 131.503 119.917 131.62 119.736C131.748 119.544 131.839 119.336 131.892 119.112C131.946 118.877 131.972 118.611 131.972 118.312V117H133.556V118.312C133.556 118.611 133.583 118.877 133.636 119.112C133.69 119.336 133.775 119.544 133.892 119.736C134.01 119.917 134.159 120.083 134.34 120.232C134.532 120.381 134.767 120.531 135.044 120.68C135.556 120.957 136.122 121.235 136.74 121.512C137.359 121.779 137.967 122.024 138.564 122.248L137.956 123.528C137.295 123.272 136.671 123.011 136.084 122.744C135.498 122.477 134.986 122.237 134.548 122.024ZM153.853 127.928V129.272H140.317V127.928H145.213V122.568H146.797V127.928H153.853ZM151.869 117.816V119.752C151.869 120.467 151.858 121.112 151.837 121.688C151.815 122.264 151.778 122.808 151.725 123.32C151.682 123.821 151.629 124.307 151.565 124.776C151.501 125.235 151.421 125.715 151.325 126.216L149.741 126.024C149.933 125.021 150.071 124.067 150.157 123.16C150.242 122.253 150.285 121.304 150.285 120.312V119.192H141.981V117.816H151.869ZM158.997 127.944C158.432 127.944 157.931 127.859 157.493 127.688C157.056 127.507 156.683 127.272 156.373 126.984C156.064 126.696 155.829 126.365 155.669 125.992C155.509 125.619 155.429 125.24 155.429 124.856V123.928C155.429 123.544 155.509 123.165 155.669 122.792C155.829 122.419 156.064 122.088 156.373 121.8C156.683 121.501 157.056 121.267 157.493 121.096C157.931 120.915 158.432 120.824 158.997 120.824C159.552 120.824 160.048 120.915 160.485 121.096C160.933 121.267 161.312 121.501 161.621 121.8C161.931 122.088 162.165 122.419 162.325 122.792C162.485 123.165 162.565 123.544 162.565 123.928V124.856C162.565 125.24 162.485 125.619 162.325 125.992C162.165 126.365 161.931 126.696 161.621 126.984C161.312 127.272 160.933 127.507 160.485 127.688C160.048 127.859 159.552 127.944 158.997 127.944ZM168.453 123.72H166.181V131.24H164.597V116.488H166.181V122.344H168.453V123.72ZM158.997 122.152C158.357 122.152 157.851 122.333 157.477 122.696C157.104 123.048 156.917 123.517 156.917 124.104V124.68C156.917 125.267 157.104 125.736 157.477 126.088C157.851 126.44 158.357 126.616 158.997 126.616C159.637 126.616 160.144 126.44 160.517 126.088C160.891 125.736 161.077 125.267 161.077 124.68V124.104C161.077 123.517 160.891 123.048 160.517 122.696C160.144 122.333 159.637 122.152 158.997 122.152ZM158.213 118.664V116.584H159.797V118.664H163.221V120.008H154.693V118.664H158.213ZM179.79 125.416V126.712C179.79 126.925 179.795 127.107 179.806 127.256C179.827 127.405 179.859 127.544 179.902 127.672C179.955 127.8 180.03 127.928 180.126 128.056C180.232 128.184 180.366 128.323 180.526 128.472C180.803 128.728 181.118 129.005 181.47 129.304C181.822 129.603 182.206 129.907 182.622 130.216L181.758 131.304C181.374 131.016 180.995 130.712 180.622 130.392C180.259 130.083 179.971 129.837 179.758 129.656C179.544 129.464 179.379 129.299 179.262 129.16C179.155 129.021 179.075 128.909 179.022 128.824C178.968 128.92 178.894 129.032 178.798 129.16C178.712 129.288 178.579 129.443 178.398 129.624C178.131 129.88 177.822 130.157 177.47 130.456C177.128 130.755 176.776 131.043 176.414 131.32C176.051 131.043 175.694 130.755 175.342 130.456C175 130.157 174.696 129.88 174.43 129.624C174.248 129.443 174.11 129.288 174.014 129.16C173.928 129.032 173.859 128.92 173.806 128.824C173.752 128.909 173.667 129.021 173.55 129.16C173.443 129.299 173.283 129.464 173.07 129.656C172.856 129.837 172.563 130.083 172.19 130.392C171.827 130.712 171.454 131.016 171.07 131.304L170.206 130.216C170.622 129.907 171.006 129.603 171.358 129.304C171.71 129.005 172.024 128.728 172.302 128.472C172.462 128.323 172.59 128.184 172.686 128.056C172.792 127.928 172.867 127.8 172.91 127.672C172.963 127.544 172.995 127.405 173.006 127.256C173.027 127.107 173.038 126.925 173.038 126.712V125.416H174.574V126.712C174.574 126.936 174.579 127.128 174.59 127.288C174.611 127.437 174.643 127.576 174.686 127.704C174.728 127.832 174.792 127.96 174.878 128.088C174.963 128.205 175.08 128.344 175.23 128.504C175.379 128.675 175.55 128.845 175.742 129.016C175.934 129.187 176.158 129.384 176.414 129.608C176.67 129.384 176.894 129.187 177.086 129.016C177.278 128.845 177.448 128.675 177.598 128.504C177.736 128.344 177.848 128.205 177.934 128.088C178.03 127.96 178.099 127.832 178.142 127.704C178.184 127.576 178.211 127.437 178.222 127.288C178.243 127.128 178.254 126.936 178.254 126.712V125.416H179.79ZM179.63 124.568V122.04H176.814V120.696H179.63V119.512H176.814V118.168H179.63V116.488H181.198V124.568H179.63ZM173.422 121.672C173.379 121.811 173.251 122.003 173.038 122.248C172.824 122.493 172.595 122.728 172.35 122.952C172.019 123.261 171.635 123.603 171.198 123.976C170.76 124.339 170.328 124.691 169.902 125.032L168.958 123.912C169.47 123.517 169.955 123.123 170.414 122.728C170.883 122.333 171.256 121.997 171.534 121.72C171.736 121.517 171.902 121.325 172.03 121.144C172.168 120.952 172.275 120.76 172.35 120.568C172.435 120.365 172.494 120.152 172.526 119.928C172.558 119.704 172.574 119.453 172.574 119.176V117.08H174.174V119.112C174.174 119.357 174.179 119.581 174.19 119.784C174.211 119.976 174.248 120.157 174.302 120.328C174.355 120.499 174.435 120.669 174.542 120.84C174.659 121 174.814 121.165 175.006 121.336C175.379 121.677 175.784 122.029 176.222 122.392C176.67 122.744 177.134 123.091 177.614 123.432L176.686 124.536C176.27 124.227 175.87 123.917 175.486 123.608C175.112 123.299 174.734 122.984 174.35 122.664C174.104 122.461 173.902 122.275 173.742 122.104C173.592 121.933 173.491 121.789 173.438 121.672H173.422ZM194.854 125.512V131.24H185.19V125.512H186.758V127.016H193.286V125.512H194.854ZM195.174 122.456C194.609 122.243 194.049 122.019 193.494 121.784C192.95 121.549 192.476 121.336 192.07 121.144C191.366 120.803 190.865 120.531 190.566 120.328C190.268 120.115 190.092 119.933 190.038 119.784H190.022C189.969 119.944 189.793 120.125 189.494 120.328C189.196 120.531 188.694 120.803 187.99 121.144C187.585 121.336 187.11 121.549 186.566 121.784C186.022 122.019 185.462 122.243 184.886 122.456L184.278 121.16C185.036 120.883 185.708 120.621 186.294 120.376C186.881 120.12 187.366 119.885 187.75 119.672C188.038 119.523 188.273 119.379 188.454 119.24C188.646 119.101 188.801 118.957 188.918 118.808C189.036 118.648 189.116 118.472 189.158 118.28C189.212 118.088 189.238 117.853 189.238 117.576V116.648H190.806V117.576C190.806 117.853 190.828 118.088 190.87 118.28C190.924 118.472 191.004 118.648 191.11 118.808C191.228 118.968 191.382 119.117 191.574 119.256C191.766 119.384 192.006 119.523 192.294 119.672C192.7 119.875 193.196 120.109 193.782 120.376C194.38 120.632 195.046 120.893 195.782 121.16L195.174 122.456ZM196.79 123.224V124.568H183.254V123.224H196.79ZM193.286 129.896V128.312H186.758V129.896H193.286ZM208.287 131.24V116.488H209.871V131.24H208.287ZM200.351 117.704V125.896H201.775C202.66 125.896 203.513 125.869 204.335 125.816C205.167 125.752 205.993 125.645 206.815 125.496L206.991 126.872C206.521 126.957 206.079 127.027 205.663 127.08C205.247 127.133 204.815 127.176 204.367 127.208C203.929 127.24 203.465 127.261 202.975 127.272C202.484 127.283 201.935 127.288 201.327 127.288H198.751V117.704H200.351ZM219.399 119.192H214.199V125.976H215.047C216.093 125.976 217.069 125.944 217.975 125.88C218.893 125.805 219.805 125.699 220.711 125.56L220.919 126.888C219.97 127.059 218.994 127.181 217.991 127.256C216.999 127.32 215.906 127.352 214.711 127.352H212.615V117.816H219.399V119.192ZM225.703 123.192H223.431V131.24H221.847V116.488H223.431V121.816H225.703V123.192ZM227.12 128.232H228.944V130.072H227.12V128.232Z" fill="#98A8D3"/>
<path d="M28.1054 157.136V153.584H25.5774V152.64H27.8334V147.76H25.7214V146.816H36.0574V147.76H33.9454V152.64H36.2014V153.584H33.6734V157.136H37.6094V158.112H24.1694V157.136H28.1054ZM28.9534 152.64H32.8254V147.76H28.9534V152.64ZM29.2254 157.136H32.5534V153.584H29.2254V157.136ZM50.5459 160.176H49.4099V145.552H50.5459V160.176ZM41.2979 153.136C41.5539 152.848 41.7565 152.587 41.9059 152.352C42.0552 152.117 42.1725 151.888 42.2579 151.664C42.3432 151.429 42.3965 151.189 42.4179 150.944C42.4499 150.699 42.4659 150.416 42.4659 150.096V146.608H43.6339V150.016C43.6339 150.325 43.6445 150.597 43.6659 150.832C43.6872 151.056 43.7299 151.275 43.7939 151.488C43.8579 151.691 43.9539 151.893 44.0819 152.096C44.2099 152.299 44.3805 152.523 44.5939 152.768C44.9139 153.141 45.3032 153.563 45.7619 154.032C46.2312 154.501 46.7699 155.008 47.3779 155.552L46.6419 156.32C46.1299 155.84 45.6552 155.387 45.2179 154.96C44.7912 154.523 44.4179 154.133 44.0979 153.792C43.8525 153.536 43.6285 153.291 43.4259 153.056C43.2339 152.821 43.1165 152.651 43.0739 152.544H43.0579C43.0472 152.597 43.0045 152.683 42.9299 152.8C42.8552 152.907 42.7592 153.029 42.6419 153.168C42.5352 153.307 42.4179 153.456 42.2899 153.616C42.1619 153.765 42.0392 153.904 41.9219 154.032C41.7832 154.181 41.6125 154.357 41.4099 154.56C41.2179 154.763 41.0099 154.976 40.7859 155.2C40.5619 155.424 40.3272 155.653 40.0819 155.888C39.8365 156.123 39.5965 156.341 39.3619 156.544L38.6099 155.76C39.1432 155.291 39.6285 154.843 40.0659 154.416C40.5139 153.989 40.9245 153.563 41.2979 153.136ZM62.7624 154.144C62.2824 154.208 61.7437 154.267 61.1464 154.32C60.5597 154.363 59.8824 154.4 59.1144 154.432C58.357 154.464 57.493 154.491 56.5224 154.512C55.5517 154.523 54.437 154.528 53.1784 154.528V153.536C53.957 153.536 54.6717 153.536 55.3224 153.536C55.973 153.536 56.5757 153.525 57.1304 153.504V151.296H54.2344V146.256H61.2264V147.248H55.3544V150.304H61.2744V151.296H58.2504V153.488C58.7304 153.477 59.173 153.461 59.5784 153.44C59.9837 153.419 60.3624 153.397 60.7144 153.376C61.0664 153.344 61.4024 153.312 61.7224 153.28C62.0424 153.248 62.357 153.216 62.6664 153.184L62.7624 154.144ZM56.6984 159.008H65.2744V160H55.5624V155.92H56.6984V159.008ZM64.9064 156.496H63.7864V145.552H64.9064V156.496ZM82.2809 146.192V151.344H72.8729V146.192H82.2809ZM73.9769 150.368H81.1769V147.152H73.9769V150.368ZM84.2969 153.008V153.968H78.2969V157.056H77.1769V153.968H70.8569V153.008H84.2969ZM73.9769 159.008H82.6169V160H72.8409V155.648H73.9769V159.008ZM96.6574 153.824V160.144H87.8894V153.824H88.9934V155.856H95.5534V153.824H96.6574ZM85.9374 146.432H92.6414V147.424H87.0574V151.456C87.8574 151.456 88.5614 151.456 89.1694 151.456C89.7774 151.445 90.3374 151.429 90.8494 151.408C91.372 151.376 91.8734 151.339 92.3534 151.296C92.844 151.253 93.3774 151.2 93.9534 151.136L94.0814 152.128C93.6867 152.181 93.3134 152.224 92.9614 152.256C92.6094 152.288 92.2574 152.32 91.9054 152.352C91.5534 152.373 91.18 152.395 90.7854 152.416C90.4014 152.427 89.9747 152.437 89.5054 152.448C89.036 152.448 88.508 152.453 87.9214 152.464C87.3454 152.464 86.684 152.464 85.9374 152.464V146.432ZM95.5534 159.136V156.848H88.9934V159.136H95.5534ZM96.6574 148.736H98.8974V149.728H96.6574V152.96H95.5374V145.552H96.6574V148.736ZM112.922 153.248V154.224H99.4819V153.248H112.922ZM102.602 159.008H111.242V160H101.466V155.696H102.602V159.008ZM106.202 151.904C105.551 151.904 104.943 151.84 104.378 151.712C103.823 151.584 103.338 151.403 102.922 151.168C102.517 150.933 102.197 150.651 101.962 150.32C101.727 149.979 101.61 149.605 101.61 149.2V148.592C101.61 148.187 101.727 147.819 101.962 147.488C102.197 147.147 102.517 146.859 102.922 146.624C103.338 146.389 103.823 146.208 104.378 146.08C104.943 145.952 105.551 145.888 106.202 145.888C106.853 145.888 107.455 145.952 108.01 146.08C108.575 146.208 109.061 146.389 109.466 146.624C109.882 146.859 110.207 147.147 110.442 147.488C110.677 147.819 110.794 148.187 110.794 148.592V149.2C110.794 149.605 110.677 149.979 110.442 150.32C110.207 150.651 109.882 150.933 109.466 151.168C109.061 151.403 108.575 151.584 108.01 151.712C107.455 151.84 106.853 151.904 106.202 151.904ZM106.202 146.848C105.733 146.848 105.285 146.896 104.858 146.992C104.442 147.077 104.074 147.2 103.754 147.36C103.434 147.52 103.178 147.712 102.986 147.936C102.794 148.16 102.698 148.405 102.698 148.672V149.12C102.698 149.387 102.794 149.632 102.986 149.856C103.178 150.08 103.434 150.272 103.754 150.432C104.074 150.592 104.442 150.72 104.858 150.816C105.285 150.901 105.733 150.944 106.202 150.944C106.671 150.944 107.114 150.901 107.53 150.816C107.957 150.72 108.33 150.592 108.65 150.432C108.97 150.272 109.226 150.08 109.418 149.856C109.61 149.632 109.706 149.387 109.706 149.12V148.672C109.706 148.405 109.61 148.16 109.418 147.936C109.226 147.712 108.97 147.52 108.65 147.36C108.33 147.2 107.957 147.077 107.53 146.992C107.114 146.896 106.671 146.848 106.202 146.848ZM122.072 160.72H118.312V145.744H122.072V146.736H119.384V159.728H122.072V160.72ZM124.71 155.6H129.158V153.36H122.998V152.4H136.438V153.36H130.278V155.6H134.502V160.288H133.382V156.576H124.71V155.6ZM129.702 149.04C129.616 149.221 129.403 149.408 129.062 149.6C128.72 149.792 128.299 149.995 127.798 150.208C127.339 150.4 126.864 150.587 126.374 150.768C125.883 150.949 125.28 151.163 124.566 151.408L124.118 150.528C125.568 150.048 126.683 149.637 127.462 149.296C127.792 149.157 128.064 149.024 128.278 148.896C128.491 148.757 128.662 148.619 128.79 148.48C128.918 148.331 129.008 148.176 129.062 148.016C129.115 147.845 129.142 147.653 129.142 147.44V147.104H124.758V146.144H134.678V147.104H130.278V147.44C130.278 147.653 130.299 147.845 130.342 148.016C130.395 148.176 130.486 148.331 130.614 148.48C130.742 148.619 130.912 148.757 131.126 148.896C131.339 149.024 131.611 149.157 131.942 149.296C132.336 149.467 132.822 149.659 133.398 149.872C133.984 150.085 134.614 150.299 135.286 150.512L134.87 151.392C134.208 151.179 133.606 150.971 133.062 150.768C132.518 150.565 132.038 150.373 131.622 150.192C131.12 149.989 130.699 149.792 130.358 149.6C130.016 149.397 129.803 149.211 129.718 149.04H129.702ZM144.03 151.488C143.433 151.488 142.857 151.435 142.302 151.328C141.747 151.211 141.257 151.045 140.83 150.832C140.403 150.619 140.062 150.352 139.806 150.032C139.561 149.712 139.438 149.344 139.438 148.928V148.384C139.438 147.968 139.561 147.6 139.806 147.28C140.062 146.96 140.403 146.693 140.83 146.48C141.257 146.267 141.747 146.107 142.302 146C142.857 145.883 143.433 145.824 144.03 145.824C144.627 145.824 145.203 145.883 145.758 146C146.313 146.107 146.798 146.267 147.214 146.48C147.641 146.693 147.982 146.96 148.238 147.28C148.494 147.6 148.622 147.968 148.622 148.384V148.928C148.622 149.344 148.494 149.712 148.238 150.032C147.982 150.352 147.641 150.619 147.214 150.832C146.798 151.045 146.313 151.211 145.758 151.328C145.203 151.435 144.627 151.488 144.03 151.488ZM144.03 146.784C143.593 146.784 143.166 146.827 142.75 146.912C142.334 146.987 141.961 147.099 141.63 147.248C141.299 147.387 141.033 147.563 140.83 147.776C140.627 147.979 140.526 148.208 140.526 148.464V148.848C140.526 149.104 140.627 149.339 140.83 149.552C141.033 149.755 141.299 149.931 141.63 150.08C141.961 150.219 142.334 150.331 142.75 150.416C143.166 150.491 143.593 150.528 144.03 150.528C144.457 150.528 144.878 150.491 145.294 150.416C145.721 150.331 146.099 150.219 146.43 150.08C146.761 149.931 147.027 149.755 147.23 149.552C147.433 149.339 147.534 149.104 147.534 148.848V148.464C147.534 148.208 147.433 147.979 147.23 147.776C147.027 147.563 146.761 147.387 146.43 147.248C146.099 147.099 145.721 146.987 145.294 146.912C144.878 146.827 144.457 146.784 144.03 146.784ZM150.75 152.672V153.648H137.31V152.672H150.75ZM139.278 155.2H148.782V160.144H139.278V155.2ZM140.366 159.136H147.694V156.208H140.366V159.136ZM161.533 157.136V153.84H156.781V152.896H159.036V147.776H156.924V146.832H167.261V147.776H165.149V152.896H167.405V153.84H162.653V157.136H168.813V158.112H155.373V157.136H161.533ZM160.157 152.896H164.029V147.776H160.157V152.896ZM181.333 154.336H171.653V146.752H181.205V147.712H172.757V150.064H181.125V151.024H172.757V153.376H181.333V154.336ZM183.125 157.136V158.112H169.685V157.136H183.125ZM195.854 145.984V146.912H193.758V149.744H195.918V150.672H191.278V152.176H197.438V153.136H183.998V152.176H190.158V150.672H185.518V149.744H187.678V146.912H185.582V145.984H195.854ZM195.438 154.464V157.808H187.086V159.296H195.87V160.24H185.998V156.88H194.35V155.408H185.918V154.464H195.438ZM188.782 149.744H192.654V146.912H188.782V149.744ZM210.374 160.176H209.238V145.552H210.374V160.176ZM200.55 155.536H202.742C203.553 155.536 204.374 155.515 205.206 155.472C206.049 155.419 206.843 155.333 207.59 155.216L207.718 156.192C206.865 156.331 205.99 156.427 205.094 156.48C204.209 156.523 203.329 156.544 202.454 156.544H199.43V150.944H204.726V147.728H199.43V146.736H205.846V151.936H200.55V155.536ZM214.527 149.904C214.527 149.381 214.655 148.912 214.911 148.496C215.167 148.069 215.513 147.707 215.951 147.408C216.388 147.099 216.895 146.864 217.471 146.704C218.057 146.533 218.681 146.448 219.343 146.448C219.993 146.448 220.607 146.533 221.183 146.704C221.769 146.864 222.281 147.099 222.719 147.408C223.167 147.707 223.519 148.069 223.775 148.496C224.031 148.912 224.159 149.381 224.159 149.904V150.688C224.159 151.168 224.047 151.611 223.823 152.016C223.599 152.421 223.295 152.773 222.911 153.072C222.527 153.36 222.079 153.6 221.567 153.792C221.055 153.973 220.505 154.085 219.919 154.128V157.136H226.063V158.112H212.623V157.136H218.767V154.128C218.169 154.085 217.615 153.973 217.103 153.792C216.591 153.6 216.143 153.36 215.759 153.072C215.375 152.773 215.071 152.421 214.847 152.016C214.633 151.611 214.527 151.168 214.527 150.688V149.904ZM219.343 147.488C218.82 147.488 218.335 147.552 217.887 147.68C217.439 147.797 217.049 147.968 216.719 148.192C216.388 148.405 216.127 148.661 215.935 148.96C215.743 149.259 215.647 149.589 215.647 149.952V150.64C215.647 151.003 215.743 151.333 215.935 151.632C216.127 151.931 216.388 152.192 216.719 152.416C217.049 152.629 217.439 152.8 217.887 152.928C218.335 153.045 218.82 153.104 219.343 153.104C219.855 153.104 220.335 153.045 220.783 152.928C221.241 152.8 221.636 152.629 221.967 152.416C222.297 152.192 222.559 151.931 222.751 151.632C222.943 151.333 223.039 151.003 223.039 150.64V149.952C223.039 149.589 222.943 149.259 222.751 148.96C222.559 148.661 222.297 148.405 221.967 148.192C221.636 147.968 221.241 147.797 220.783 147.68C220.335 147.552 219.855 147.488 219.343 147.488ZM226.983 159.728H229.671V146.736H226.983V145.744H230.743V160.72H226.983V159.728ZM243.796 146.704V151.04H235.476V153.408H244.132V154.384H239.668V157.136H245.828V158.112H232.388V157.136H238.548V154.384H234.372V150.08H242.692V147.68H234.324V146.704H243.796ZM53.3983 175.992H59.7823V176.984H57.2063V179.16C57.2063 179.533 57.2169 179.853 57.2383 180.12C57.2703 180.387 57.3183 180.632 57.3823 180.856C57.4569 181.08 57.5583 181.299 57.6863 181.512C57.8143 181.715 57.9796 181.944 58.1823 182.2C58.4489 182.531 58.7689 182.904 59.1423 183.32C59.5156 183.725 59.9263 184.152 60.3743 184.6L59.6383 185.32C59.4569 185.149 59.2703 184.963 59.0783 184.76C58.8969 184.547 58.7103 184.339 58.5183 184.136C58.3369 183.933 58.1609 183.736 57.9903 183.544C57.8303 183.352 57.6809 183.181 57.5423 183.032C57.3076 182.765 57.1103 182.52 56.9503 182.296C56.8009 182.061 56.7103 181.901 56.6783 181.816H56.6623C56.6409 181.901 56.5609 182.051 56.4223 182.264C56.2943 182.477 56.1076 182.728 55.8623 183.016C55.5636 183.357 55.2276 183.736 54.8543 184.152C54.4809 184.557 54.0383 185.011 53.5263 185.512L52.7743 184.76C53.0089 184.536 53.2436 184.307 53.4783 184.072C53.7129 183.837 53.9316 183.608 54.1343 183.384C54.3476 183.16 54.5396 182.952 54.7103 182.76C54.8916 182.557 55.0409 182.376 55.1583 182.216C55.3503 181.971 55.5049 181.741 55.6223 181.528C55.7503 181.315 55.8463 181.091 55.9103 180.856C55.9743 180.621 56.0169 180.371 56.0383 180.104C56.0703 179.827 56.0863 179.512 56.0863 179.16V176.984H53.3983V175.992ZM61.5903 179.496V174.856H62.7103V188.456H61.5903V180.52H58.9983V179.496H61.5903ZM65.5583 189.176H64.4383V174.552H65.5583V189.176ZM71.7908 179.592C71.7588 179.709 71.6254 179.891 71.3908 180.136C71.1668 180.381 70.8841 180.653 70.5428 180.952C70.4041 181.08 70.2334 181.224 70.0308 181.384C69.8388 181.544 69.6308 181.709 69.4068 181.88C69.1934 182.051 68.9748 182.221 68.7508 182.392C68.5374 182.563 68.3401 182.712 68.1588 182.84L67.4708 182.04C67.9508 181.699 68.4308 181.341 68.9108 180.968C69.3908 180.584 69.8281 180.2 70.2228 179.816C70.4148 179.624 70.5748 179.443 70.7028 179.272C70.8308 179.101 70.9268 178.931 70.9908 178.76C71.0654 178.589 71.1134 178.413 71.1348 178.232C71.1668 178.04 71.1828 177.837 71.1828 177.624V176.408H67.8868V175.432H75.4708V176.408H72.3188V177.576C72.3188 177.811 72.3294 178.019 72.3508 178.2C72.3721 178.381 72.4201 178.557 72.4948 178.728C72.5801 178.899 72.6974 179.075 72.8468 179.256C73.0068 179.427 73.2148 179.624 73.4708 179.848C73.7268 180.061 74.0628 180.323 74.4788 180.632C74.8948 180.941 75.3321 181.251 75.7908 181.56L75.1348 182.344C74.8041 182.12 74.4681 181.88 74.1268 181.624C73.7854 181.368 73.4921 181.144 73.2468 180.952C72.8734 180.643 72.5481 180.365 72.2708 180.12C71.9934 179.875 71.8388 179.699 71.8068 179.592H71.7908ZM69.5988 183.88H78.7668V189.288H77.6468V184.872H69.5988V183.88ZM78.7668 178.2H81.0068V179.192H78.7668V183.016H77.6468V174.552H78.7668V178.2ZM90.1993 181.688H87.1753V184.968C88.0393 184.936 88.8286 184.899 89.5433 184.856C90.2686 184.813 90.9726 184.749 91.6553 184.664L91.7513 185.64C91.0899 185.704 90.4339 185.763 89.7833 185.816C89.1433 185.859 88.4446 185.896 87.6873 185.928C86.9406 185.96 86.1033 185.981 85.1753 185.992C84.2579 186.003 83.1859 186.008 81.9593 186.008V185.016C82.7486 185.016 83.4739 185.016 84.1353 185.016C84.8073 185.016 85.4419 185.005 86.0393 184.984V181.688H82.9673V175.816H90.1513V176.84H84.1033V180.664H90.1993V181.688ZM93.9113 189.176H92.7753V174.552H93.9113V189.176ZM108.032 189.176H106.912V180.824H103.632V181.32C103.632 182.664 103.312 183.709 102.672 184.456C102.042 185.192 101.162 185.56 100.032 185.56C98.9011 185.56 98.0158 185.192 97.3758 184.456C96.7464 183.709 96.4318 182.664 96.4318 181.32V179.816C96.4318 178.483 96.7464 177.448 97.3758 176.712C98.0158 175.965 98.9011 175.592 100.032 175.592C101.162 175.592 102.042 175.96 102.672 176.696C103.301 177.432 103.621 178.467 103.632 179.8H106.912V174.552H108.032V189.176ZM102.528 180.024C102.528 179.416 102.469 178.899 102.352 178.472C102.234 178.045 102.064 177.699 101.84 177.432C101.626 177.155 101.365 176.957 101.056 176.84C100.746 176.712 100.405 176.648 100.032 176.648C99.6584 176.648 99.3171 176.712 99.0078 176.84C98.6984 176.957 98.4318 177.155 98.2078 177.432C97.9944 177.699 97.8291 178.045 97.7118 178.472C97.5944 178.899 97.5358 179.416 97.5358 180.024V181.128C97.5358 181.736 97.5944 182.259 97.7118 182.696C97.8291 183.123 97.9944 183.475 98.2078 183.752C98.4318 184.019 98.6984 184.216 99.0078 184.344C99.3171 184.461 99.6584 184.52 100.032 184.52C100.405 184.52 100.746 184.461 101.056 184.344C101.365 184.216 101.626 184.019 101.84 183.752C102.064 183.475 102.234 183.123 102.352 182.696C102.469 182.259 102.528 181.736 102.528 181.128V180.024ZM121.678 181.32C121.678 182.664 121.358 183.709 120.718 184.456C120.089 185.192 119.209 185.56 118.078 185.56C116.948 185.56 116.062 185.192 115.422 184.456C114.793 183.709 114.478 182.664 114.478 181.32V179.816C114.478 178.483 114.793 177.448 115.422 176.712C116.062 175.965 116.948 175.592 118.078 175.592C119.209 175.592 120.089 175.965 120.718 176.712C121.358 177.459 121.678 178.499 121.678 179.832V181.32ZM120.574 180.024C120.574 179.416 120.516 178.899 120.398 178.472C120.281 178.045 120.11 177.699 119.886 177.432C119.673 177.155 119.412 176.957 119.102 176.84C118.793 176.712 118.452 176.648 118.078 176.648C117.705 176.648 117.364 176.712 117.054 176.84C116.745 176.957 116.478 177.155 116.254 177.432C116.041 177.699 115.876 178.045 115.758 178.472C115.641 178.899 115.582 179.416 115.582 180.024V181.128C115.582 181.736 115.641 182.259 115.758 182.696C115.876 183.123 116.041 183.475 116.254 183.752C116.478 184.019 116.745 184.216 117.054 184.344C117.364 184.461 117.705 184.52 118.078 184.52C118.452 184.52 118.793 184.461 119.102 184.344C119.412 184.216 119.673 184.019 119.886 183.752C120.11 183.475 120.281 183.123 120.398 182.696C120.516 182.259 120.574 181.736 120.574 181.128V180.024ZM125.326 180.04H127.758V181.048H125.326V189.176H124.19V174.552H125.326V180.04ZM137.623 179.976H139.671V174.552H140.791V189.176H139.671V180.984H137.623V188.456H136.503V174.856H137.623V179.976ZM130.055 184.376H131.175C131.516 184.376 131.847 184.376 132.167 184.376C132.497 184.365 132.828 184.349 133.159 184.328C133.5 184.307 133.847 184.28 134.199 184.248C134.561 184.216 134.945 184.168 135.351 184.104L135.479 185.096C134.647 185.224 133.857 185.304 133.111 185.336C132.375 185.368 131.655 185.384 130.951 185.384H128.951V179.992H133.175V176.808H128.951V175.832H134.279V180.968H130.055V184.376ZM146.143 185.496C145.077 185.496 144.287 185.133 143.775 184.408C143.274 183.672 143.023 182.616 143.023 181.24V179.992C143.023 178.616 143.274 177.565 143.775 176.84C144.287 176.104 145.077 175.736 146.143 175.736C147.21 175.736 147.994 176.104 148.495 176.84C149.007 177.565 149.263 178.616 149.263 179.992V180.072H151.231V174.856H152.351V188.456H151.231V181.08H149.263V181.24C149.263 182.616 149.007 183.672 148.495 184.408C147.994 185.133 147.21 185.496 146.143 185.496ZM146.143 176.776C145.429 176.776 144.911 177.059 144.591 177.624C144.271 178.189 144.111 179.021 144.111 180.12V181.112C144.111 182.211 144.271 183.043 144.591 183.608C144.911 184.173 145.429 184.456 146.143 184.456C146.858 184.456 147.375 184.173 147.695 183.608C148.015 183.043 148.175 182.211 148.175 181.112V180.12C148.175 179.021 148.015 178.189 147.695 177.624C147.375 177.059 146.858 176.776 146.143 176.776ZM155.167 189.176H154.047V174.552H155.167V189.176ZM169.016 189.176H167.896V180.216H164.424V179.192H167.896V174.552H169.016V189.176ZM159.544 182.104C159.8 181.816 160.002 181.555 160.152 181.32C160.301 181.085 160.418 180.856 160.504 180.632C160.589 180.397 160.642 180.157 160.664 179.912C160.696 179.667 160.712 179.384 160.712 179.064V175.624H161.88V178.984C161.88 179.293 161.89 179.565 161.912 179.8C161.933 180.024 161.976 180.243 162.04 180.456C162.104 180.659 162.2 180.861 162.328 181.064C162.456 181.267 162.626 181.491 162.84 181.736C163.16 182.109 163.549 182.531 164.008 183C164.477 183.469 165.016 183.976 165.624 184.52L164.888 185.288C164.376 184.808 163.901 184.355 163.464 183.928C163.037 183.491 162.664 183.101 162.344 182.76C162.098 182.504 161.874 182.259 161.672 182.024C161.48 181.789 161.362 181.619 161.32 181.512H161.304C161.293 181.565 161.25 181.651 161.176 181.768C161.101 181.875 161.005 181.997 160.888 182.136C160.781 182.275 160.664 182.424 160.536 182.584C160.408 182.733 160.285 182.872 160.168 183C160.029 183.149 159.858 183.325 159.656 183.528C159.464 183.731 159.256 183.944 159.032 184.168C158.808 184.392 158.573 184.621 158.328 184.856C158.082 185.091 157.842 185.309 157.608 185.512L156.856 184.728C157.389 184.259 157.874 183.811 158.312 183.384C158.76 182.957 159.17 182.531 159.544 182.104ZM187.062 182.68V186.424H179.222V188.264H187.446V189.224H178.118V185.48H185.958V183.656H178.038V182.68H187.062ZM179.43 178.792C179.345 179.059 178.95 179.496 178.246 180.104C177.969 180.349 177.617 180.648 177.19 181C176.764 181.341 176.278 181.709 175.734 182.104L175.046 181.288C175.558 180.936 176.033 180.589 176.47 180.248C176.908 179.896 177.292 179.571 177.622 179.272C177.857 179.059 178.049 178.861 178.198 178.68C178.348 178.499 178.465 178.312 178.55 178.12C178.646 177.917 178.71 177.704 178.742 177.48C178.785 177.256 178.806 177 178.806 176.712V174.92H179.958V176.664C179.958 176.952 179.969 177.203 179.99 177.416C180.022 177.619 180.076 177.805 180.15 177.976C180.236 178.147 180.353 178.317 180.502 178.488C180.652 178.648 180.854 178.835 181.11 179.048C181.409 179.293 181.766 179.576 182.182 179.896C182.598 180.205 183.014 180.499 183.43 180.776L182.79 181.592C182.417 181.325 182.065 181.069 181.734 180.824C181.404 180.568 181.121 180.349 180.886 180.168C180.513 179.869 180.193 179.603 179.926 179.368C179.66 179.123 179.5 178.931 179.446 178.792H179.43ZM185.942 177.368V174.552H187.062V181.816H185.942V178.36H182.662V177.368H185.942ZM197.087 183.512C197.684 183.512 198.249 183.576 198.783 183.704C199.327 183.821 199.801 183.997 200.207 184.232C200.612 184.467 200.932 184.755 201.167 185.096C201.401 185.427 201.519 185.8 201.519 186.216V186.84C201.519 187.256 201.401 187.629 201.167 187.96C200.932 188.301 200.612 188.589 200.207 188.824C199.801 189.059 199.327 189.24 198.783 189.368C198.249 189.496 197.684 189.56 197.087 189.56C196.489 189.56 195.919 189.496 195.375 189.368C194.841 189.24 194.372 189.059 193.967 188.824C193.561 188.589 193.241 188.301 193.007 187.96C192.772 187.629 192.655 187.256 192.655 186.84V186.216C192.655 185.789 192.772 185.411 193.007 185.08C193.241 184.739 193.561 184.451 193.967 184.216C194.372 183.981 194.841 183.805 195.375 183.688C195.919 183.571 196.489 183.512 197.087 183.512ZM197.087 188.6C197.513 188.6 197.924 188.557 198.319 188.472C198.724 188.397 199.081 188.28 199.391 188.12C199.711 187.971 199.961 187.784 200.143 187.56C200.335 187.347 200.431 187.096 200.431 186.808V186.264C200.431 185.976 200.335 185.725 200.143 185.512C199.961 185.288 199.711 185.101 199.391 184.952C199.081 184.792 198.724 184.675 198.319 184.6C197.924 184.515 197.513 184.472 197.087 184.472C196.66 184.472 196.244 184.515 195.839 184.6C195.444 184.675 195.087 184.792 194.767 184.952C194.457 185.101 194.207 185.288 194.015 185.512C193.833 185.725 193.743 185.976 193.743 186.264V186.808C193.743 187.096 193.833 187.347 194.015 187.56C194.207 187.784 194.457 187.971 194.767 188.12C195.087 188.28 195.444 188.397 195.839 188.472C196.244 188.557 196.66 188.6 197.087 188.6ZM193.983 179.736C193.951 179.853 193.817 180.035 193.583 180.28C193.359 180.525 193.076 180.797 192.735 181.096C192.596 181.224 192.425 181.368 192.223 181.528C192.031 181.688 191.823 181.853 191.599 182.024C191.385 182.195 191.167 182.365 190.943 182.536C190.729 182.707 190.532 182.856 190.351 182.984L189.663 182.184C190.143 181.843 190.623 181.485 191.103 181.112C191.583 180.728 192.02 180.344 192.415 179.96C192.607 179.768 192.767 179.587 192.895 179.416C193.023 179.245 193.119 179.075 193.183 178.904C193.257 178.733 193.305 178.557 193.327 178.376C193.359 178.184 193.375 177.981 193.375 177.768V176.456H190.079V175.48H197.647V176.456H194.511V177.72C194.511 177.955 194.521 178.163 194.543 178.344C194.564 178.525 194.612 178.701 194.687 178.872C194.772 179.043 194.889 179.219 195.039 179.4C195.199 179.571 195.407 179.768 195.663 179.992C195.919 180.205 196.255 180.467 196.671 180.776C197.087 181.085 197.524 181.395 197.983 181.704L197.327 182.504C197.007 182.28 196.671 182.04 196.319 181.784C195.977 181.517 195.684 181.288 195.439 181.096C195.065 180.787 194.74 180.509 194.463 180.264C194.185 180.019 194.031 179.843 193.999 179.736H193.983ZM201.439 183.176H200.319V179.288H197.263V178.296H200.319V174.552H201.439V183.176ZM211.319 181.224C211.319 181.555 211.239 181.875 211.079 182.184C210.93 182.493 210.711 182.771 210.423 183.016C210.135 183.251 209.783 183.443 209.367 183.592C208.951 183.731 208.482 183.8 207.959 183.8C207.437 183.8 206.967 183.731 206.551 183.592C206.135 183.443 205.783 183.251 205.495 183.016C205.207 182.771 204.983 182.493 204.823 182.184C204.674 181.875 204.599 181.555 204.599 181.224V180.616C204.599 180.285 204.674 179.965 204.823 179.656C204.983 179.347 205.207 179.075 205.495 178.84C205.783 178.595 206.135 178.403 206.551 178.264C206.967 178.115 207.437 178.04 207.959 178.04C208.482 178.04 208.951 178.115 209.367 178.264C209.783 178.403 210.135 178.595 210.423 178.84C210.711 179.075 210.93 179.347 211.079 179.656C211.239 179.965 211.319 180.285 211.319 180.616V181.224ZM207.959 182.84C208.311 182.84 208.626 182.792 208.903 182.696C209.191 182.589 209.431 182.456 209.623 182.296C209.826 182.136 209.981 181.96 210.087 181.768C210.194 181.565 210.247 181.368 210.247 181.176V180.664C210.247 180.472 210.194 180.28 210.087 180.088C209.981 179.885 209.826 179.704 209.623 179.544C209.431 179.384 209.191 179.256 208.903 179.16C208.626 179.053 208.311 179 207.959 179C207.607 179 207.287 179.053 206.999 179.16C206.722 179.256 206.482 179.384 206.279 179.544C206.087 179.704 205.938 179.885 205.831 180.088C205.725 180.28 205.671 180.472 205.671 180.664V181.176C205.671 181.368 205.725 181.565 205.831 181.768C205.938 181.96 206.087 182.136 206.279 182.296C206.482 182.456 206.722 182.589 206.999 182.696C207.287 182.792 207.607 182.84 207.959 182.84ZM215.095 179.016H217.335V180.008H215.095V185.192H213.975V174.552H215.095V179.016ZM207.511 188.008H215.543V189H206.375V184.952H207.511V188.008ZM208.519 176.28H212.183V177.256H203.767V176.28H207.399V174.408H208.519V176.28ZM39.7878 208.544C39.7238 208.704 39.5371 208.923 39.2278 209.2C38.9291 209.467 38.4918 209.792 37.9158 210.176C37.4358 210.496 36.8865 210.843 36.2678 211.216C35.6598 211.579 35.0678 211.915 34.4918 212.224L33.8838 211.328C34.5878 210.965 35.2331 210.613 35.8198 210.272C36.4065 209.92 36.8865 209.616 37.2598 209.36C37.6545 209.093 37.9798 208.853 38.2358 208.64C38.4918 208.427 38.6891 208.203 38.8278 207.968C38.9771 207.723 39.0785 207.456 39.1318 207.168C39.1851 206.869 39.2118 206.501 39.2118 206.064V204.512H40.3798V206.064C40.3798 206.501 40.4065 206.869 40.4598 207.168C40.5131 207.456 40.6091 207.723 40.7478 207.968C40.8971 208.203 41.0945 208.427 41.3398 208.64C41.5958 208.853 41.9211 209.093 42.3158 209.36C42.6891 209.616 43.1638 209.915 43.7398 210.256C44.3265 210.597 44.9665 210.949 45.6598 211.312L45.0678 212.192C44.4918 211.883 43.8998 211.547 43.2918 211.184C42.6945 210.821 42.1558 210.48 41.6758 210.16C41.0998 209.776 40.6625 209.451 40.3638 209.184C40.0651 208.917 39.8785 208.704 39.8038 208.544H39.7878ZM39.1958 215.136V211.76H40.3638V215.136H46.5078V216.112H33.0678V215.136H39.1958ZM60.8203 210.4V211.36H54.6603V212.992C55.2043 213.024 55.7163 213.104 56.1963 213.232C56.6763 213.349 57.0976 213.515 57.4603 213.728C57.823 213.941 58.111 214.203 58.3243 214.512C58.5376 214.811 58.6443 215.152 58.6443 215.536V215.984C58.6443 216.4 58.5163 216.768 58.2603 217.088C58.015 217.408 57.6843 217.675 57.2683 217.888C56.8523 218.112 56.367 218.277 55.8123 218.384C55.2683 218.501 54.6976 218.56 54.1003 218.56C53.503 218.56 52.927 218.501 52.3723 218.384C51.8283 218.277 51.3483 218.112 50.9323 217.888C50.5163 217.675 50.1803 217.408 49.9243 217.088C49.679 216.768 49.5563 216.4 49.5563 215.984V215.52C49.5563 215.136 49.663 214.795 49.8763 214.496C50.0896 214.187 50.3723 213.931 50.7243 213.728C51.087 213.515 51.5083 213.349 51.9883 213.232C52.479 213.104 52.9963 213.024 53.5403 212.992V211.36H47.3803V210.4H60.8203ZM54.0843 207.104C53.999 207.285 53.7856 207.472 53.4443 207.664C53.103 207.856 52.6816 208.059 52.1803 208.272C51.7216 208.464 51.247 208.651 50.7563 208.832C50.2656 209.013 49.663 209.227 48.9483 209.472L48.5003 208.592C49.951 208.112 51.0656 207.701 51.8443 207.36C52.175 207.221 52.447 207.088 52.6603 206.96C52.8736 206.821 53.0443 206.683 53.1723 206.544C53.3003 206.395 53.391 206.24 53.4443 206.08C53.4976 205.909 53.5243 205.717 53.5243 205.504V205.104H49.1403V204.144H59.0603V205.104H54.6603V205.504C54.6603 205.717 54.6816 205.909 54.7243 206.08C54.7776 206.24 54.8683 206.395 54.9963 206.544C55.1243 206.683 55.295 206.821 55.5083 206.96C55.7216 207.088 55.9936 207.221 56.3243 207.36C56.719 207.531 57.2043 207.723 57.7803 207.936C58.367 208.149 58.9963 208.363 59.6683 208.576L59.2523 209.456C58.591 209.243 57.9883 209.035 57.4443 208.832C56.9003 208.629 56.4203 208.437 56.0043 208.256C55.503 208.053 55.0816 207.856 54.7403 207.664C54.399 207.461 54.1856 207.275 54.1003 207.104H54.0843ZM54.1003 217.6C54.527 217.6 54.9483 217.563 55.3643 217.488C55.7803 217.424 56.1483 217.323 56.4683 217.184C56.799 217.045 57.0603 216.869 57.2523 216.656C57.455 216.453 57.5563 216.208 57.5563 215.92V215.6C57.5563 215.312 57.455 215.067 57.2523 214.864C57.0603 214.651 56.799 214.475 56.4683 214.336C56.1483 214.197 55.7803 214.096 55.3643 214.032C54.9483 213.957 54.527 213.92 54.1003 213.92C53.6736 213.92 53.2523 213.957 52.8363 214.032C52.4203 214.096 52.047 214.197 51.7163 214.336C51.3963 214.475 51.135 214.651 50.9323 214.864C50.7403 215.067 50.6443 215.307 50.6443 215.584V215.92C50.6443 216.208 50.7403 216.453 50.9323 216.656C51.135 216.869 51.3963 217.045 51.7163 217.184C52.047 217.323 52.4203 217.424 52.8363 217.488C53.2523 217.563 53.6736 217.6 54.1003 217.6ZM69.4208 210.224C69.4208 210.555 69.3408 210.875 69.1808 211.184C69.0315 211.493 68.8128 211.771 68.5248 212.016C68.2368 212.251 67.8848 212.443 67.4688 212.592C67.0528 212.731 66.5835 212.8 66.0608 212.8C65.5381 212.8 65.0688 212.731 64.6528 212.592C64.2368 212.443 63.8848 212.251 63.5968 212.016C63.3088 211.771 63.0848 211.493 62.9248 211.184C62.7755 210.875 62.7008 210.555 62.7008 210.224V209.616C62.7008 209.285 62.7755 208.965 62.9248 208.656C63.0848 208.347 63.3088 208.075 63.5968 207.84C63.8848 207.595 64.2368 207.403 64.6528 207.264C65.0688 207.115 65.5381 207.04 66.0608 207.04C66.5835 207.04 67.0528 207.115 67.4688 207.264C67.8848 207.403 68.2368 207.595 68.5248 207.84C68.8128 208.075 69.0315 208.347 69.1808 208.656C69.3408 208.965 69.4208 209.285 69.4208 209.616V210.224ZM66.0608 211.84C66.4128 211.84 66.7275 211.792 67.0048 211.696C67.2928 211.589 67.5328 211.456 67.7248 211.296C67.9275 211.136 68.0821 210.96 68.1888 210.768C68.2955 210.565 68.3488 210.368 68.3488 210.176V209.664C68.3488 209.472 68.2955 209.28 68.1888 209.088C68.0821 208.885 67.9275 208.704 67.7248 208.544C67.5328 208.384 67.2928 208.256 67.0048 208.16C66.7275 208.053 66.4128 208 66.0608 208C65.7088 208 65.3888 208.053 65.1008 208.16C64.8235 208.256 64.5835 208.384 64.3808 208.544C64.1888 208.704 64.0395 208.885 63.9328 209.088C63.8261 209.28 63.7728 209.472 63.7728 209.664V210.176C63.7728 210.368 63.8261 210.565 63.9328 210.768C64.0395 210.96 64.1888 211.136 64.3808 211.296C64.5835 211.456 64.8235 211.589 65.1008 211.696C65.3888 211.792 65.7088 211.84 66.0608 211.84ZM73.1968 208.016H75.4368V209.008H73.1968V214.192H72.0768V203.552H73.1968V208.016ZM65.6128 217.008H73.6448V218H64.4768V213.952H65.6128V217.008ZM66.6208 205.28H70.2848V206.256H61.8688V205.28H65.5008V203.408H66.6208V205.28ZM91.1953 209.536H81.7553V203.968H82.8593V205.792H90.0913V203.968H91.1953V209.536ZM93.1953 211.232V212.192H87.1953V215.136H86.0753V212.192H79.7553V211.232H93.1953ZM82.8753 217.008H91.5153V218H81.7393V213.84H82.8753V217.008ZM82.8593 208.56H90.0913V206.736H82.8593V208.56ZM106.388 218.176H105.252V203.552H106.388V218.176ZM104.228 214.592C103.566 214.656 102.91 214.715 102.26 214.768C101.62 214.811 100.921 214.848 100.164 214.88C99.4171 214.912 98.5798 214.933 97.6518 214.944C96.7345 214.955 95.6625 214.96 94.4358 214.96V213.968C95.5985 213.968 96.6385 213.963 97.5558 213.952C98.4838 213.941 99.3318 213.925 100.1 213.904C100.868 213.872 101.577 213.835 102.228 213.792C102.878 213.739 103.513 213.68 104.132 213.616L104.228 214.592ZM99.0118 211.472C98.4891 211.472 97.9985 211.392 97.5398 211.232C97.0811 211.072 96.6758 210.853 96.3238 210.576C95.9825 210.299 95.7105 209.973 95.5078 209.6C95.3051 209.227 95.2038 208.821 95.2038 208.384V207.616C95.2038 207.179 95.3051 206.773 95.5078 206.4C95.7105 206.027 95.9825 205.701 96.3238 205.424C96.6758 205.147 97.0811 204.928 97.5398 204.768C97.9985 204.608 98.4891 204.528 99.0118 204.528C99.5345 204.528 100.025 204.608 100.484 204.768C100.942 204.928 101.342 205.147 101.684 205.424C102.036 205.701 102.313 206.032 102.516 206.416C102.718 206.789 102.82 207.189 102.82 207.616V208.384C102.82 208.821 102.718 209.227 102.516 209.6C102.313 209.973 102.036 210.299 101.684 210.576C101.342 210.853 100.942 211.072 100.484 211.232C100.025 211.392 99.5345 211.472 99.0118 211.472ZM99.0118 205.52C98.6598 205.52 98.3185 205.579 97.9878 205.696C97.6678 205.803 97.3798 205.957 97.1238 206.16C96.8678 206.352 96.6651 206.581 96.5158 206.848C96.3665 207.104 96.2918 207.381 96.2918 207.68V208.32C96.2918 208.619 96.3665 208.901 96.5158 209.168C96.6651 209.424 96.8678 209.653 97.1238 209.856C97.3798 210.048 97.6678 210.203 97.9878 210.32C98.3185 210.427 98.6598 210.48 99.0118 210.48C99.3638 210.48 99.6998 210.427 100.02 210.32C100.35 210.203 100.644 210.048 100.9 209.856C101.156 209.653 101.358 209.424 101.508 209.168C101.657 208.901 101.732 208.619 101.732 208.32V207.68C101.732 207.381 101.657 207.104 101.508 206.848C101.358 206.581 101.156 206.352 100.9 206.16C100.644 205.957 100.35 205.803 100.02 205.696C99.6998 205.579 99.3638 205.52 99.0118 205.52ZM120.738 209.024C119.672 208.491 119.048 208.043 118.866 207.68H118.85C118.68 208.043 118.056 208.496 116.978 209.04C116.541 209.253 116.045 209.493 115.49 209.76C114.936 210.016 114.322 210.272 113.65 210.528L113.154 209.632C113.752 209.408 114.349 209.163 114.946 208.896C115.544 208.629 116.098 208.363 116.61 208.096C116.994 207.893 117.298 207.701 117.522 207.52C117.746 207.328 117.912 207.136 118.018 206.944C118.136 206.741 118.21 206.528 118.242 206.304C118.274 206.08 118.29 205.835 118.29 205.568V205.424H113.858V204.464H123.842V205.424H119.426V205.568C119.426 205.835 119.437 206.08 119.458 206.304C119.49 206.528 119.56 206.741 119.666 206.944C119.784 207.136 119.954 207.328 120.178 207.52C120.402 207.701 120.706 207.893 121.09 208.096C121.602 208.363 122.152 208.629 122.738 208.896C123.325 209.152 123.917 209.392 124.514 209.616L124.034 210.496C123.426 210.261 122.84 210.016 122.274 209.76C121.72 209.504 121.208 209.259 120.738 209.024ZM125.57 211.968V212.944H119.426V218.176H118.29V212.944H112.13V211.968H125.57ZM133.163 208.544C133.099 208.704 132.912 208.923 132.603 209.2C132.304 209.467 131.867 209.792 131.291 210.176C130.811 210.496 130.261 210.843 129.643 211.216C129.035 211.579 128.443 211.915 127.867 212.224L127.259 211.328C127.963 210.965 128.608 210.613 129.195 210.272C129.781 209.92 130.261 209.616 130.635 209.36C131.029 209.093 131.355 208.853 131.611 208.64C131.867 208.427 132.064 208.203 132.203 207.968C132.352 207.723 132.453 207.456 132.507 207.168C132.56 206.869 132.587 206.501 132.587 206.064V204.512H133.755V206.064C133.755 206.501 133.781 206.869 133.835 207.168C133.888 207.456 133.984 207.723 134.123 207.968C134.272 208.203 134.469 208.427 134.715 208.64C134.971 208.853 135.296 209.093 135.691 209.36C136.064 209.616 136.539 209.915 137.115 210.256C137.701 210.597 138.341 210.949 139.035 211.312L138.443 212.192C137.867 211.883 137.275 211.547 136.667 211.184C136.069 210.821 135.531 210.48 135.051 210.16C134.475 209.776 134.037 209.451 133.739 209.184C133.44 208.917 133.253 208.704 133.179 208.544H133.163ZM132.571 215.136V211.76H133.739V215.136H139.883V216.112H126.443V215.136H132.571ZM152.163 204.704V209.04H143.843V211.408H152.499V212.384H148.035V215.136H154.195V216.112H140.755V215.136H146.915V212.384H142.739V208.08H151.059V205.68H142.691V204.704H152.163ZM163.522 209.104C163.49 209.221 163.356 209.403 163.122 209.648C162.898 209.893 162.615 210.165 162.274 210.464C162.135 210.592 161.964 210.736 161.762 210.896C161.57 211.056 161.362 211.221 161.138 211.392C160.924 211.563 160.706 211.733 160.482 211.904C160.268 212.075 160.071 212.224 159.89 212.352L159.202 211.552C159.682 211.211 160.162 210.853 160.642 210.48C161.122 210.096 161.559 209.712 161.954 209.328C162.146 209.136 162.306 208.955 162.434 208.784C162.562 208.613 162.658 208.443 162.722 208.272C162.796 208.101 162.844 207.925 162.866 207.744C162.898 207.552 162.914 207.349 162.914 207.136V205.488H159.618V204.512H167.186V205.488H164.05V207.088C164.05 207.323 164.06 207.531 164.082 207.712C164.103 207.893 164.151 208.069 164.226 208.24C164.311 208.411 164.428 208.587 164.578 208.768C164.738 208.939 164.946 209.136 165.202 209.36C165.458 209.573 165.794 209.835 166.21 210.144C166.626 210.453 167.063 210.763 167.522 211.072L166.866 211.856C166.535 211.632 166.199 211.392 165.858 211.136C165.516 210.88 165.223 210.656 164.978 210.464C164.604 210.155 164.279 209.877 164.002 209.632C163.724 209.387 163.57 209.211 163.538 209.104H163.522ZM169.858 207.44V203.552H170.978V214H169.858V208.432H166.802V207.44H169.858ZM163.154 217.008H171.346V218H162.018V213.152H163.154V217.008ZM184.634 211.616V215.392H176.922V217.264H185.018V218.224H175.818V214.448H183.53V212.592H175.738V211.616H184.634ZM173.914 204.192H180.618V205.184H175.034V209.12C175.834 209.12 176.538 209.12 177.146 209.12C177.754 209.109 178.314 209.093 178.826 209.072C179.349 209.04 179.85 209.003 180.33 208.96C180.821 208.917 181.354 208.864 181.93 208.8L182.058 209.776C181.664 209.829 181.29 209.872 180.938 209.904C180.586 209.936 180.234 209.968 179.882 210C179.53 210.021 179.157 210.043 178.762 210.064C178.378 210.075 177.952 210.085 177.482 210.096C177.013 210.096 176.485 210.101 175.898 210.112C175.322 210.112 174.661 210.112 173.914 210.112V204.192ZM184.634 206.512H186.874V207.504H184.634V210.752H183.514V203.552H184.634V206.512ZM199.555 212.672V218.16H190.243V212.672H191.347V214.4H198.451V212.672H199.555ZM197.411 211.2C196.931 211.264 196.392 211.317 195.795 211.36C195.208 211.403 194.531 211.44 193.763 211.472C193.005 211.504 192.141 211.531 191.171 211.552C190.2 211.563 189.085 211.568 187.827 211.568V210.592C188.605 210.592 189.32 210.592 189.971 210.592C190.621 210.592 191.224 210.581 191.779 210.56V208.768H188.883V204.176H195.875V205.168H190.003V207.776H195.923V208.768H192.899V210.544C193.379 210.533 193.821 210.517 194.227 210.496C194.632 210.475 195.011 210.453 195.363 210.432C195.715 210.4 196.051 210.368 196.371 210.336C196.691 210.304 197.005 210.272 197.315 210.24L197.411 211.2ZM198.451 217.152V215.392H191.347V217.152H198.451ZM199.555 211.808H198.435V203.552H199.555V211.808ZM213.851 218.176H212.715V203.552H213.851V218.176ZM204.155 213.136H206.251C207.019 213.136 207.803 213.109 208.603 213.056C209.414 212.992 210.257 212.885 211.131 212.736L211.275 213.744C210.411 213.893 209.531 214 208.635 214.064C207.739 214.128 206.907 214.16 206.139 214.16H203.019V204.752H204.155V213.136ZM216.884 204.88H223.54V205.904H218.02V213.248H219.908C220.729 213.248 221.534 213.221 222.324 213.168C223.124 213.104 223.977 212.997 224.884 212.848L225.028 213.856C224.174 214.005 223.284 214.112 222.356 214.176C221.438 214.24 220.526 214.272 219.62 214.272H216.884V204.88ZM227.412 208.976H229.844V209.984H227.412V218.176H226.276V203.552H227.412V208.976ZM230.972 215.28H232.588V216.88H230.972V215.28Z" fill="#332C28"/>
</svg>
